<svg width="307" height="307" viewBox="0 0 307 307" fill="none" xmlns="http://www.w3.org/2000/svg">
<mask id="mask0_83_900" style="mask-type:luminance" maskUnits="userSpaceOnUse" x="0" y="0" width="307" height="307">
<path d="M306.496 0H0V306.496H306.496V0Z" fill="white"/>
</mask>
<g mask="url(#mask0_83_900)">
<path d="M155.206 77.3125C140.036 77.3221 125.208 81.8314 112.601 90.2698C99.9939 98.7083 90.1722 110.697 84.3799 124.718C78.5875 138.74 77.0843 154.164 80.0604 169.04C83.0365 183.917 90.3582 197.576 101.099 208.29C111.84 219.003 125.518 226.291 140.401 229.229C155.285 232.168 170.705 230.626 184.712 224.798C198.719 218.97 210.683 209.119 219.089 196.49C227.496 183.861 231.968 169.023 231.939 153.852C231.901 133.531 223.798 114.056 209.411 99.7049C195.023 85.3534 175.528 77.2997 155.206 77.3125ZM155.206 208.454C144.44 208.464 133.912 205.282 124.954 199.31C115.995 193.338 109.008 184.845 104.874 174.904C100.741 164.962 99.6469 154.019 101.731 143.456C103.815 132.893 108.984 123.185 116.583 115.558C124.183 107.932 133.872 102.729 144.428 100.608C154.983 98.4861 165.93 99.5411 175.887 103.639C185.843 107.737 194.36 114.695 200.364 123.632C206.367 132.569 209.587 143.086 209.615 153.852C209.622 161.004 208.219 168.086 205.488 174.696C202.758 181.305 198.752 187.312 193.699 192.373C188.647 197.435 182.647 201.451 176.043 204.194C169.438 206.936 162.358 208.351 155.206 208.358V208.454Z" fill="#D9E1E4"/>
<path d="M222.273 267.123C218.44 265.121 214.228 263.949 209.911 263.681C205.595 263.414 201.271 264.057 197.219 265.57C193.168 267.083 189.48 269.432 186.396 272.463C183.312 275.494 180.899 279.141 179.316 283.165C176.911 289.012 172.771 293.982 167.455 297.404C162.139 300.826 155.901 302.537 149.583 302.305C143.265 302.073 137.17 299.911 132.118 296.108C127.067 292.306 123.302 287.047 121.332 281.039C120.03 276.919 117.879 273.118 115.016 269.882C112.153 266.646 108.643 264.047 104.713 262.252C100.782 260.458 96.5189 259.508 92.1985 259.465C87.8781 259.422 83.5967 260.286 79.6311 262.001C73.7561 264.696 67.1834 265.479 60.8395 264.241C54.4956 263.002 48.7004 259.804 44.2707 255.097C39.8411 250.389 37.0003 244.411 36.149 238.003C35.2976 231.596 36.4785 225.083 39.5252 219.382C41.5196 215.544 42.6865 211.329 42.9504 207.012C43.2144 202.694 42.5697 198.369 41.0578 194.316C39.5459 190.263 37.2005 186.572 34.1732 183.482C31.1459 180.392 27.504 177.972 23.4828 176.377C17.6139 173.992 12.6206 169.86 9.1802 164.54C5.73988 159.221 4.01908 152.972 4.25121 146.641C4.48334 140.31 6.65716 134.204 10.4779 129.151C14.2985 124.097 19.581 120.342 25.6089 118.393C29.7349 117.092 33.5416 114.939 36.7822 112.073C40.0227 109.207 42.6248 105.692 44.4198 101.756C46.2148 97.8193 47.1626 93.5498 47.2017 89.2238C47.2409 84.8978 46.3706 80.6119 44.6471 76.6439C42.1331 70.7879 41.4896 64.2984 42.8046 58.0628C44.1197 51.8272 47.329 46.1501 51.9936 41.8081C56.6582 37.4661 62.5504 34.6711 68.8641 33.8056C75.1778 32.9401 81.6047 34.0463 87.2657 36.9728C91.1219 38.9966 95.3621 40.1831 99.7088 40.4547C104.055 40.7262 108.41 40.0766 112.488 38.5485C116.567 37.0203 120.276 34.6481 123.374 31.587C126.471 28.5259 128.888 24.8451 130.464 20.7855C132.845 14.9152 136.973 9.91897 142.29 6.47472C147.606 3.03043 153.853 1.30468 160.184 1.53153C166.514 1.75838 172.622 3.92683 177.678 7.7428C182.734 11.5588 186.495 16.8376 188.449 22.8633C189.751 26.9892 191.904 30.796 194.769 34.0377C197.634 37.2794 201.148 39.8839 205.082 41.6827C209.017 43.4816 213.285 44.4348 217.612 44.4808C221.938 44.5268 226.226 43.6646 230.198 41.9498C236.054 39.4358 242.543 38.7923 248.779 40.1073C255.014 41.4223 260.691 44.6317 265.033 49.2963C269.375 53.9609 272.17 59.8531 273.036 66.1667C273.901 72.4804 272.795 78.9074 269.869 84.5684C267.874 88.4004 266.705 92.6084 266.438 96.9204C266.171 101.232 266.812 105.552 268.32 109.601C269.827 113.65 272.167 117.337 275.189 120.425C278.211 123.512 281.847 125.931 285.863 127.525C291.711 129.926 296.683 134.061 300.11 139.375C303.536 144.688 305.251 150.923 305.025 157.241C304.798 163.559 302.641 169.656 298.843 174.711C295.046 179.765 289.79 183.534 283.785 185.51C279.665 186.813 275.864 188.964 272.627 191.826C269.389 194.688 266.788 198.196 264.989 202.125C263.191 206.054 262.236 210.316 262.186 214.637C262.136 218.958 262.992 223.241 264.698 227.21C267.284 233.056 267.991 239.56 266.722 245.825C265.454 252.09 262.272 257.807 257.617 262.187C252.961 266.567 247.061 269.394 240.73 270.278C234.4 271.162 227.951 270.06 222.273 267.123Z" fill="#D9E1E4"/>
<path d="M184.536 18.0342C179.915 15.6286 174.766 14.4161 169.557 14.5068C163.371 14.413 157.306 16.2148 152.175 19.67C147.044 23.1253 143.093 28.0684 140.854 33.8349C139.273 37.8601 136.86 41.5067 133.775 44.5371C130.689 47.5676 127 49.9138 122.947 51.4228C118.894 52.9318 114.568 53.5699 110.252 53.2952C105.936 53.0206 101.727 51.8395 97.8974 49.829C93.1714 47.3735 87.8928 46.176 82.5698 46.3519C77.2468 46.5278 72.0588 48.0712 67.5053 50.8335C62.9517 53.5957 59.186 57.4837 56.5707 62.1232C53.9554 66.7627 52.5786 71.9974 52.5728 77.3233C52.6186 81.5989 53.5223 85.8218 55.2305 89.7416C56.9532 93.7029 57.8228 97.9824 57.7829 102.302C57.7429 106.621 56.7942 110.884 54.9985 114.813C53.2028 118.741 50.6003 122.248 47.3602 125.105C44.1201 127.962 40.3149 130.104 36.1922 131.394C29.897 133.29 24.3834 137.17 20.4735 142.456C16.5636 147.742 14.4671 154.15 14.4964 160.724C14.4894 165.901 15.7678 170.998 18.2171 175.559C13.4078 172.94 9.40397 169.059 6.63675 164.333C3.86954 159.607 2.44375 154.217 2.5129 148.741C2.4359 142.133 4.50429 135.679 8.40758 130.347C12.3109 125.014 17.8384 121.092 24.1605 119.169C30.4277 117.167 35.8949 113.222 39.7696 107.905C43.6444 102.588 45.7255 96.1757 45.7114 89.5967C45.1092 85.3722 43.6983 81.3035 41.5558 77.6132C40.3284 73.5116 39.9988 69.1937 40.5894 64.9533C40.6528 59.6655 42.067 54.4817 44.6975 49.8942C47.328 45.3067 51.0875 41.4678 55.6191 38.7421C60.1507 36.0164 65.3038 34.4943 70.5891 34.3205C75.8744 34.1467 81.1164 35.3268 85.8173 37.7489C90.1953 40.0626 95.0717 41.2734 100.024 41.2763C106.236 41.328 112.321 39.5134 117.49 36.0673C122.659 32.6212 126.674 27.7025 129.016 21.9481C131.172 16.5171 134.823 11.8081 139.545 8.36648C144.267 4.92492 149.868 2.8917 155.698 2.50233C161.529 2.11297 167.35 3.38341 172.488 6.16647C177.626 8.94954 181.87 13.1314 184.729 18.2275L184.536 18.0342Z" fill="white"/>
<path d="M300.747 158.11C300.84 164.721 298.777 171.183 294.872 176.518C290.966 181.854 285.43 185.772 279.099 187.682C274.975 188.977 271.169 191.125 267.929 193.986C264.688 196.848 262.086 200.359 260.291 204.291C258.495 208.224 257.547 212.49 257.508 216.812C257.468 221.135 258.338 225.418 260.061 229.382C262.67 235.241 263.383 241.768 262.102 248.052C260.821 254.336 257.608 260.063 252.914 264.433C248.22 268.802 242.278 271.596 235.918 272.425C229.559 273.253 223.1 272.075 217.442 269.053C213.602 267.067 209.389 265.906 205.073 265.646C200.758 265.386 196.435 266.032 192.384 267.543C188.333 269.054 184.644 271.397 181.553 274.42C178.462 277.443 176.038 281.079 174.437 285.096C172.08 290.973 167.972 295.984 162.671 299.448C157.37 302.912 151.132 304.663 144.803 304.462C138.473 304.262 132.359 302.12 127.287 298.327C122.216 294.535 118.434 289.274 116.453 283.26C267.986 239.143 260.931 138.975 238.558 41.2227C243.809 41.3656 248.936 42.8413 253.46 45.511C257.983 48.1807 261.753 51.9568 264.415 56.4842C267.077 61.0116 268.545 66.1418 268.679 71.3923C268.813 76.6428 267.61 81.8412 265.183 86.4989C262.901 90.8695 261.707 95.7263 261.704 100.657C261.659 106.868 263.476 112.95 266.921 118.117C270.367 123.285 275.282 127.302 281.032 129.649C286.836 131.805 291.838 135.69 295.364 140.78C298.89 145.87 300.768 151.918 300.747 158.11Z" fill="#24A0ED"/>
<path d="M41.9432 69.2386C43.7846 69.2386 45.2773 67.7458 45.2773 65.9044C45.2773 64.0631 43.7846 62.5703 41.9432 62.5703C40.1018 62.5703 38.6091 64.0631 38.6091 65.9044C38.6091 67.7458 40.1018 69.2386 41.9432 69.2386Z" fill="#3E3126"/>
<path d="M119.98 36.9612C121.822 36.9612 123.315 35.4685 123.315 33.6271C123.315 31.7857 121.822 30.293 119.98 30.293C118.139 30.293 116.646 31.7857 116.646 33.6271C116.646 35.4685 118.139 36.9612 119.98 36.9612Z" fill="#3E3126"/>
<path d="M32.4703 188.645C34.3116 188.645 35.8044 187.152 35.8044 185.311C35.8044 183.469 34.3116 181.977 32.4703 181.977C30.6289 181.977 29.1362 183.469 29.1362 185.311C29.1362 187.152 30.6289 188.645 32.4703 188.645Z" fill="#3E3126"/>
<path d="M153.223 229.908C195.575 229.908 229.908 195.575 229.908 153.224C229.908 110.872 195.575 76.5391 153.223 76.5391C110.872 76.5391 76.5388 110.872 76.5388 153.224C76.5388 195.575 110.872 229.908 153.223 229.908Z" fill="#94B5BF"/>
<path d="M153.224 232.957C137.455 232.957 122.04 228.281 108.929 219.521C95.8176 210.76 85.5985 198.308 79.5641 183.74C73.5296 169.171 71.9508 153.14 75.0272 137.675C78.1035 122.209 85.6969 108.002 96.8472 96.852C107.998 85.7018 122.204 78.1084 137.67 75.032C153.136 71.9557 169.166 73.5346 183.735 79.569C198.303 85.6035 210.755 95.8225 219.516 108.934C228.277 122.045 232.953 137.46 232.953 153.229C232.94 174.37 224.536 194.642 209.587 209.591C194.637 224.541 174.365 232.945 153.224 232.957ZM153.224 79.6367C138.668 79.6845 124.452 84.0452 112.373 92.168C100.293 100.291 90.8921 111.811 85.3569 125.274C79.8217 138.737 78.4006 153.539 81.2732 167.809C84.1458 182.079 91.1832 195.178 101.497 205.451C111.81 215.723 124.936 222.709 139.217 225.525C153.499 228.342 168.294 226.863 181.736 221.275C195.177 215.686 206.66 206.24 214.735 194.129C222.811 182.018 227.115 167.785 227.106 153.229C227.1 143.542 225.182 133.951 221.463 125.007C217.745 116.062 212.298 107.939 205.435 101.103C198.572 94.2666 190.427 88.8517 181.468 85.1682C172.509 81.4847 162.911 79.605 153.224 79.6367Z" fill="#3E3126"/>
<path d="M153.176 246.436C134.759 246.493 116.739 241.081 101.4 230.887C86.0612 220.693 74.094 206.174 67.015 189.171C59.936 172.169 58.0639 153.447 61.6358 135.379C65.2078 117.311 74.0631 100.711 87.0794 87.6807C100.096 74.6507 116.688 65.7782 134.752 62.1874C152.816 58.5966 171.539 60.4493 188.549 67.5105C205.559 74.5718 220.09 86.5239 230.301 101.852C240.511 117.18 245.941 135.195 245.903 153.612C245.852 178.198 236.07 201.764 218.694 219.158C201.318 236.552 177.762 246.359 153.176 246.436ZM153.176 66.9735C136.075 66.9162 119.341 71.9325 105.091 81.3878C90.8416 90.843 79.7165 104.312 73.1236 120.092C66.5307 135.871 64.7661 153.252 68.0532 170.034C71.3402 186.816 79.5312 202.247 91.5898 214.373C103.649 226.499 119.033 234.776 135.797 238.157C152.561 241.538 169.951 239.871 185.767 233.366C201.583 226.862 215.114 215.812 224.649 201.616C234.183 187.419 239.293 170.713 239.332 153.612C239.344 130.732 230.281 108.78 214.129 92.5742C197.977 76.3682 176.057 67.2308 153.176 67.1668V66.9735Z" fill="#94B5BF"/>
<path opacity="0.3" d="M153.225 229.966C138.048 229.966 123.213 225.465 110.594 217.034C97.9754 208.602 88.1404 196.618 82.3327 182.597C76.525 168.576 75.0054 153.148 77.9661 138.263C80.9269 123.378 88.235 109.706 98.9663 98.9746C109.698 88.2433 123.37 80.9352 138.255 77.9745C153.139 75.0137 168.568 76.5333 182.589 82.341C196.61 88.1487 208.594 97.9837 217.026 110.602C225.457 123.221 229.957 138.057 229.957 153.233C229.945 173.58 221.856 193.09 207.469 207.477C193.081 221.864 173.571 229.953 153.225 229.966ZM153.225 84.4729C139.624 84.5207 126.343 88.598 115.058 96.1898C103.773 103.782 94.9914 114.548 89.8219 127.128C84.6525 139.708 83.3271 153.537 86.0132 166.87C88.6993 180.203 95.2765 192.441 104.914 202.038C114.551 211.635 126.817 218.16 140.161 220.79C153.505 223.42 167.329 222.037 179.887 216.814C192.445 211.592 203.174 202.765 210.718 191.449C218.263 180.132 222.284 166.834 222.274 153.233C222.262 144.182 220.465 135.223 216.987 126.868C213.509 118.512 208.418 110.924 202.004 104.538C195.591 98.1517 187.982 93.0925 179.612 89.6495C171.242 86.2066 162.275 84.4475 153.225 84.4729Z" fill="#3E3126"/>
<path d="M152.935 206.665C182.984 206.665 207.344 182.306 207.344 152.257C207.344 122.207 182.984 97.8477 152.935 97.8477C122.886 97.8477 98.5259 122.207 98.5259 152.257C98.5259 182.306 122.886 206.665 152.935 206.665Z" fill="white"/>
<path d="M22.0826 180.235C21.7623 180.285 21.4363 180.285 21.1161 180.235C14.7517 177.659 9.33431 173.187 5.60007 167.425C1.86582 161.664 -0.00430131 154.892 0.243764 148.031C0.491826 141.17 2.84606 134.551 6.98661 129.074C11.1272 123.597 16.8534 119.528 23.3872 117.418C27.1693 116.219 30.6583 114.241 33.6294 111.611C36.6005 108.981 38.9878 105.758 40.6376 102.149C42.2878 98.5464 43.162 94.637 43.2036 90.6746C43.2453 86.7121 42.4533 82.7852 40.8792 79.1486C40.7433 78.8444 40.6693 78.5162 40.6615 78.1831C40.6537 77.8501 40.7122 77.5187 40.8336 77.2085C40.955 76.8982 41.1369 76.6152 41.3687 76.3759C41.6005 76.1366 41.8776 75.9457 42.1838 75.8145C42.4915 75.6778 42.8232 75.603 43.1598 75.5946C43.4965 75.5861 43.8314 75.6442 44.1456 75.7654C44.4598 75.8865 44.747 76.0685 44.9908 76.3008C45.2345 76.5331 45.4301 76.8112 45.5663 77.1192C47.4192 81.4166 48.3508 86.0547 48.3009 90.7343C48.251 95.4139 47.2208 100.031 45.2767 104.288C43.3326 108.545 40.5178 112.347 37.0139 115.45C33.5099 118.552 29.3946 120.885 24.9335 122.299C19.3547 124.065 14.4585 127.513 10.9162 132.17C7.3739 136.828 5.35879 142.467 5.14711 148.315C4.93542 154.162 6.53753 159.932 9.73377 164.834C12.9301 169.735 17.5641 173.528 23.0006 175.693C23.6249 175.941 24.1268 176.424 24.3979 177.039C24.6691 177.654 24.6879 178.35 24.4502 178.979C24.2061 179.383 23.857 179.713 23.44 179.934C23.0231 180.155 22.5539 180.259 22.0826 180.235Z" fill="#3E3126"/>
<path d="M149.02 306.501H147.716C140.804 306.303 134.128 303.946 128.625 299.76C123.122 295.574 119.068 289.77 117.032 283.162C115.832 279.386 113.853 275.904 111.223 272.941C108.593 269.978 105.37 267.599 101.763 265.96C98.1559 264.32 94.245 263.456 90.283 263.423C86.321 263.389 82.3961 264.188 78.7621 265.767C72.4215 268.489 65.3947 269.186 58.643 267.762C51.8913 266.338 45.7443 262.863 41.0428 257.813C36.3412 252.762 33.3147 246.382 32.3772 239.546C31.4397 232.71 32.637 225.751 35.8053 219.621C37.5928 216.211 38.661 212.47 38.9436 208.63C39.2262 204.789 38.7172 200.932 37.4482 197.297C37.2482 196.662 37.3029 195.975 37.6009 195.38C37.8989 194.785 38.4167 194.33 39.0447 194.11C39.6727 193.89 40.3615 193.923 40.9654 194.202C41.5694 194.482 42.0409 194.985 42.2802 195.606C43.7923 199.899 44.4011 204.459 44.0685 208.999C43.7359 213.539 42.4691 217.961 40.3474 221.989C37.713 227.177 36.7378 233.05 37.5542 238.811C38.3707 244.572 40.9392 249.942 44.9114 254.194C48.8837 258.446 54.0675 261.373 59.7598 262.579C65.4522 263.785 71.3776 263.211 76.7327 260.935C81.0301 259.082 85.6682 258.15 90.3478 258.2C95.0274 258.25 99.6448 259.28 103.902 261.224C108.159 263.169 111.961 265.983 115.063 269.487C118.165 272.991 120.499 277.107 121.912 281.568C123.589 287.197 127.01 292.149 131.682 295.71C136.354 299.27 142.036 301.255 147.909 301.379C153.771 301.636 159.567 300.05 164.481 296.843C169.395 293.636 173.181 288.97 175.306 283.501C177.024 279.143 179.639 275.196 182.981 271.915C186.323 268.634 190.319 266.093 194.707 264.458C199.096 262.822 203.779 262.127 208.453 262.419C213.128 262.711 217.688 263.984 221.839 266.154C227.031 268.838 232.926 269.853 238.717 269.06C244.508 268.266 249.913 265.703 254.192 261.721C258.47 257.738 261.414 252.531 262.62 246.811C263.827 241.092 263.236 235.139 260.93 229.768C259.07 225.472 258.132 220.832 258.178 216.15C258.224 211.469 259.253 206.849 261.198 202.59C263.143 198.331 265.961 194.527 269.469 191.427C272.977 188.326 277.097 185.996 281.563 184.589C287.142 182.823 292.038 179.375 295.58 174.717C299.123 170.06 301.138 164.421 301.349 158.573C301.561 152.725 299.959 146.955 296.763 142.054C293.566 137.152 288.932 133.359 283.496 131.195C279.143 129.471 275.201 126.853 271.925 123.51C268.648 120.166 266.11 116.172 264.475 111.786C262.84 107.399 262.144 102.719 262.432 98.0462C262.721 93.3739 263.987 88.8141 266.149 84.6621C268.834 79.4699 269.849 73.575 269.055 67.7838C268.262 61.9926 265.698 56.588 261.716 52.3094C257.733 48.0307 252.526 45.0869 246.807 43.8807C241.087 42.6745 235.135 43.2648 229.764 45.5709C225.456 47.4085 220.814 48.3316 216.131 48.2817C211.448 48.2317 206.827 47.2099 202.559 45.281C198.32 43.3155 194.535 40.4932 191.441 36.9919C188.347 33.4907 186.013 29.3865 184.584 24.9381C182.818 19.3593 179.37 14.4632 174.713 10.9209C170.055 7.37853 164.416 5.36342 158.568 5.15174C152.721 4.94006 146.95 6.54216 142.049 9.73847C137.147 12.9348 133.354 17.5688 131.19 23.0053C130.932 23.6217 130.447 24.1156 129.836 24.3853C129.225 24.655 128.533 24.6799 127.904 24.4549C127.589 24.3322 127.302 24.1484 127.058 23.9141C126.815 23.6798 126.62 23.3996 126.485 23.0897C126.35 22.7797 126.278 22.4462 126.273 22.1083C126.268 21.7704 126.329 21.4347 126.455 21.1208C129.03 14.7563 133.503 9.33895 139.264 5.6047C145.026 1.87045 151.797 0.000337005 158.658 0.248402C165.52 0.496468 172.139 2.85069 177.615 6.99124C183.092 11.1318 187.162 16.858 189.271 23.3918C190.461 27.1765 192.432 30.669 195.058 33.6429C197.684 36.6168 200.905 39.0057 204.513 40.6549C208.121 42.3041 212.036 43.1767 216.003 43.2161C219.97 43.2555 223.901 42.4609 227.541 40.8838C233.88 38.1398 240.913 37.4235 247.676 38.8333C254.439 40.243 260.6 43.7097 265.315 48.7583C270.03 53.8068 273.068 60.19 274.014 67.033C274.959 73.876 273.764 80.8438 270.594 86.9815C268.746 90.4849 267.656 94.3376 267.392 98.2897C267.129 102.242 267.699 106.205 269.066 109.923C270.433 113.64 272.566 117.029 275.326 119.87C278.087 122.71 281.413 124.939 285.09 126.411C291.433 129.007 296.826 133.486 300.542 139.245C304.258 145.003 306.118 151.763 305.87 158.612C305.623 165.46 303.28 172.068 299.158 177.543C295.035 183.018 289.333 187.096 282.819 189.228C279.043 190.459 275.567 192.471 272.619 195.134C269.671 197.796 267.316 201.049 265.707 204.681C264.098 208.314 263.272 212.244 263.281 216.216C263.291 220.188 264.136 224.114 265.762 227.739C268.483 234.091 269.171 241.13 267.733 247.889C266.295 254.648 262.801 260.797 257.73 265.492C252.659 270.187 246.26 273.198 239.411 274.112C232.561 275.027 225.596 273.8 219.471 270.599C215.968 268.751 212.115 267.66 208.163 267.397C204.211 267.134 200.248 267.704 196.53 269.071C192.812 270.438 189.424 272.57 186.583 275.331C183.743 278.091 181.514 281.418 180.042 285.095C177.668 291.399 173.426 296.828 167.881 300.653C162.337 304.479 155.756 306.519 149.02 306.501Z" fill="#3E3126"/>
<path d="M42.57 57.1267C42.2658 57.1731 41.9562 57.1731 41.6519 57.1267C41.3388 57.0091 41.0523 56.8302 40.8092 56.6004C40.5661 56.3706 40.3713 56.0946 40.2363 55.7886C40.1013 55.4826 40.0287 55.1526 40.0229 54.8182C40.017 54.4837 40.0781 54.1515 40.2023 53.8409C41.8883 49.295 44.5226 45.16 47.9301 41.7108C51.3376 38.2617 55.4403 35.5773 59.9654 33.8363C64.3444 32.1976 69.022 31.5096 73.6874 31.8178C78.3528 32.1261 82.8993 33.4236 87.0247 35.6241C93.5204 38.9951 101.064 39.739 108.093 37.7019C108.42 37.6237 108.759 37.612 109.091 37.6674C109.422 37.7229 109.74 37.8443 110.024 38.0245C110.307 38.2048 110.552 38.4402 110.743 38.7167C110.935 38.9933 111.068 39.3055 111.137 39.6347C111.232 39.9551 111.263 40.2914 111.227 40.6239C111.191 40.9563 111.089 41.2782 110.927 41.5707C110.765 41.8633 110.546 42.1205 110.284 42.3274C110.021 42.5343 109.72 42.6866 109.397 42.7756C101.12 45.2361 92.2085 44.3693 84.5603 40.3595C81.1049 38.4765 77.2878 37.3516 73.3633 37.06C69.4389 36.7684 65.4973 37.3167 61.8014 38.6683C57.9753 40.157 54.5005 42.4249 51.5974 45.328C48.6943 48.2311 46.4263 51.706 44.9376 55.5321C44.7514 56.0068 44.4252 56.4135 44.0023 56.6983C43.5794 56.9831 43.0799 57.1325 42.57 57.1267Z" fill="#3E3126"/>
<path d="M147.572 284.754C154.483 284.754 160.087 280.017 160.087 274.172C160.087 268.328 154.483 263.59 147.572 263.59C140.66 263.59 135.057 268.328 135.057 274.172C135.057 280.017 140.66 284.754 147.572 284.754Z" fill="#94B5BF"/>
<path opacity="0.5" d="M155.349 259.381C157.564 259.381 159.36 257.585 159.36 255.37C159.36 253.155 157.564 251.36 155.349 251.36C153.134 251.36 151.339 253.155 151.339 255.37C151.339 257.585 153.134 259.381 155.349 259.381Z" fill="#94B5BF"/>
<path opacity="0.5" d="M231.454 71.0251C233.669 71.0251 235.465 69.2295 235.465 67.0145C235.465 64.7995 233.669 63.0039 231.454 63.0039C229.239 63.0039 227.443 64.7995 227.443 67.0145C227.443 69.2295 229.239 71.0251 231.454 71.0251Z" fill="#94B5BF"/>
<path d="M183.858 267.072C188.635 267.072 192.508 263.2 192.508 258.423C192.508 253.646 188.635 249.774 183.858 249.774C179.081 249.774 175.209 253.646 175.209 258.423C175.209 263.2 179.081 267.072 183.858 267.072Z" fill="#94B5BF"/>
<path d="M252.715 125.924C257.492 125.924 261.364 122.051 261.364 117.274C261.364 112.498 257.492 108.625 252.715 108.625C247.938 108.625 244.065 112.498 244.065 117.274C244.065 122.051 247.938 125.924 252.715 125.924Z" fill="#94B5BF"/>
<path opacity="0.5" d="M170.667 257.61C172.001 257.61 173.083 256.528 173.083 255.193C173.083 253.859 172.001 252.777 170.667 252.777C169.333 252.777 168.251 253.859 168.251 255.193C168.251 256.528 169.333 257.61 170.667 257.61Z" fill="#94B5BF"/>
<path opacity="0.5" d="M235.996 78.5782C237.331 78.5782 238.412 77.4965 238.412 76.1621C238.412 74.8278 237.331 73.7461 235.996 73.7461C234.662 73.7461 233.58 74.8278 233.58 76.1621C233.58 77.4965 234.662 78.5782 235.996 78.5782Z" fill="#94B5BF"/>
<path opacity="0.35" d="M242.763 105.098C244.097 105.098 245.179 104.016 245.179 102.682C245.179 101.347 244.097 100.266 242.763 100.266C241.429 100.266 240.347 101.347 240.347 102.682C240.347 104.016 241.429 105.098 242.763 105.098Z" fill="#94B5BF"/>
<path d="M245.517 96.2579C250.133 96.2579 253.876 92.5153 253.876 87.8985C253.876 83.2817 250.133 79.5391 245.517 79.5391C240.9 79.5391 237.157 83.2817 237.157 87.8985C237.157 92.5153 240.9 96.2579 245.517 96.2579Z" fill="#94B5BF"/>
<path d="M153.223 209.865C142.022 209.865 131.073 206.543 121.76 200.321C112.447 194.098 105.189 185.253 100.902 174.905C96.6159 164.557 95.4944 153.17 97.6795 142.185C99.8648 131.2 105.258 121.109 113.179 113.189C121.099 105.269 131.189 99.8749 142.175 97.6898C153.16 95.5046 164.547 96.6261 174.895 100.913C185.243 105.199 194.088 112.457 200.31 121.77C206.533 131.083 209.855 142.033 209.855 153.233C209.836 165.637 205.706 177.685 198.113 187.492C197.741 187.865 197.247 188.091 196.721 188.127C196.196 188.163 195.675 188.007 195.256 187.688C194.837 187.37 194.547 186.91 194.442 186.394C194.336 185.878 194.422 185.341 194.682 184.883C202.621 174.435 206.336 161.382 205.089 148.32C203.843 135.257 197.726 123.142 187.954 114.384C178.183 105.627 165.473 100.867 152.353 101.053C139.232 101.238 126.662 106.355 117.143 115.386C107.623 124.416 101.85 136.699 100.974 149.792C100.097 162.884 104.18 175.827 112.411 186.046C120.642 196.266 132.417 203.013 145.396 204.946C158.374 206.879 171.605 203.857 182.457 196.48C182.929 196.24 183.473 196.181 183.987 196.313C184.5 196.446 184.947 196.762 185.244 197.201C185.54 197.64 185.667 198.173 185.598 198.698C185.53 199.224 185.272 199.707 184.873 200.056C175.542 206.418 164.517 209.835 153.223 209.865Z" fill="#3E3126"/>
<path d="M36.7714 159.465C36.5651 159.516 36.3495 159.516 36.1432 159.465C35.7527 159.304 35.4418 158.995 35.2787 158.606C35.1157 158.216 35.1138 157.778 35.2735 157.387L43.9711 136.706C44.1709 136.376 44.4834 136.13 44.8506 136.013C45.2179 135.896 45.6152 135.916 45.9688 136.069C46.3225 136.222 46.6087 136.499 46.7745 136.847C46.9402 137.195 46.9743 137.591 46.8704 137.962L38.221 158.402C38.1203 158.708 37.9265 158.975 37.6666 159.165C37.4067 159.356 37.0937 159.461 36.7714 159.465Z" fill="#3E3126"/>
<path d="M48.3195 149.798C48.1269 149.82 47.9323 149.82 47.7397 149.798C47.3491 149.638 47.0382 149.329 46.8752 148.939C46.7121 148.55 46.7102 148.112 46.8699 147.721L51.7019 136.752C51.7807 136.559 51.8978 136.383 52.0462 136.236C52.1946 136.09 52.3712 135.974 52.5654 135.897C52.7596 135.821 52.9672 135.784 53.1759 135.79C53.3846 135.795 53.59 135.843 53.7797 135.931C54.1703 136.091 54.4812 136.4 54.6442 136.79C54.8073 137.179 54.8092 137.617 54.6495 138.008L49.8175 148.929C49.6694 149.195 49.452 149.417 49.1883 149.57C48.9246 149.723 48.6244 149.802 48.3195 149.798Z" fill="#3E3126"/>
<path d="M153.225 247.412C134.599 247.412 116.391 241.888 100.904 231.54C85.4162 221.192 73.3454 206.483 66.2174 189.275C59.0894 172.066 57.2244 153.131 60.8582 134.862C64.4921 116.594 73.4615 99.8129 86.6323 86.6423C99.8028 73.4715 116.584 64.5021 134.852 60.8682C153.121 57.2344 172.057 59.0994 189.265 66.2274C206.474 73.3554 221.182 85.4262 231.53 100.914C241.878 116.401 247.402 134.609 247.402 153.235C247.376 178.204 237.446 202.144 219.79 219.8C202.134 237.456 178.195 247.386 153.225 247.412ZM153.225 63.4075C135.447 63.4075 118.069 68.6799 103.288 78.5577C88.5066 88.4355 76.987 102.475 70.186 118.901C63.3849 135.326 61.6079 153.4 65.0797 170.835C68.5515 188.271 77.1161 204.285 89.6903 216.852C102.265 229.42 118.284 237.976 135.721 241.438C153.158 244.901 171.231 243.114 187.653 236.304C204.075 229.494 218.108 217.967 227.978 203.181C237.848 188.394 243.111 171.013 243.101 153.235C243.076 129.411 233.597 106.57 216.746 89.7286C199.895 72.8868 177.05 63.4203 153.225 63.4075Z" fill="#3E3126"/>
</g>
</svg>
