<svg xmlns="http://www.w3.org/2000/svg" width="396" height="416" fill="none" viewBox="0 0 396 416">
  <g clip-path="url(#a)">
    <path fill="#fff" d="M396 0H0v416h396V0Z"/>
    <path fill="#FEC601" fill-rule="evenodd" d="M224.975 344.882c38.242 0 71.802-29.883 52.955-70.473-18.848-40.59 51.182-39.279 71.754-67.332 25.087-34.211 17.822-179.434-143.229-90.899-25.798 14.182-92.055-14.591-114.032-.314-25.87 16.804-62.267 51.215-25.87 86.464 17.929 17.363-46.35 62.429-18.197 102.796 27.47 39.389 46.726 1.84 88.548 9.875 41.822 8.033 59.669 29.883 88.071 29.883Z" clip-rule="evenodd"/>
    <path fill="#fff" d="M180.587 274.268s8.805-4.351 12.093-7.378c3.287-3.028 7.374-10.549 7.374-10.549s44.892 34.059 74.164 29.2c6.744-1.119 19.885-5.828 20.723-14.126 2.289-22.658-29.373-28.447-22.457-39.937 4.222-7.014 17.336 3.424 17.336 3.424l54.394 28.107s-18.792 48.66-64.394 50.61c-56.097 2.399-99.233-39.351-99.233-39.351Z"/>
    <path fill="#fff" fill-rule="evenodd" d="M137.462 83.703c-.51-.211-3.252-3.738-6.733-4.38-1.581-.291-.146 1.824-1.886 1.844-5.185.056-13.61-.967-15.171 0-1.16.716 1.395 3.217 0 3.332-13.159 1.083-33.233 14.885-37.588 21.581-1.387 2.131 9.824-1.484 8.038-.431-2.005 1.183-4.228 8.925-5.558 14.904-.92 4.118-1.5 9.418-1.704 15.183-.17 4.977-.102 5.801.58 8.522.783 3.043 1.397 3.938 2.454 3.509.375-.144.545-.68.545-1.683 0-.788.41-3.151.92-5.264l.887-3.795.375 1.575c.477 1.826 3.272 7.484 5.794 11.602.136.218.721-.06 1.25-1.4.48-1.221.285-3.172 1.102-5.263 1.86-4.763 5.515-10.955 9.746-15.912 6.254-7.326 8.329-15.805 14.19-22.61 10.941-12.701 24.67-20.526 22.759-21.314Z" clip-rule="evenodd"/>
    <path fill="#E7EAEE" fill-rule="evenodd" d="M84.277 107.377c-1.755 1.482-4.36 13.506-4.404 13.707-.92 4.118-1.808 18.417-.901 21.125.907 2.707 3.446-7.052 3.446-7.052s3.838 10.469 7.23 13.339c.144.123-4.032-12.952-5.37-20.585-1.768-10.075.998-21.378 0-20.534Z" clip-rule="evenodd"/>
    <path fill="#fff" fill-rule="evenodd" d="M149.685 317.964c3.272-.752 8.794-3.371 10.908-4.266 2.113-.896 8.555-10.451 10.873-21.229 1.67-7.949 2.522-19.263 1.567-21.162-.141-.269-.656-5.414.716-3.734 3.051 3.734 6.673 9.597 18.099-.908 3.113-2.862 7.237-6.554 6.151-9.819-3.038-9.134-16.212-27.527-18.22-28.92-2.401-1.666-14.537-.25-32.599-5.851-20.483-6.351-29.012-25.052-37.027-22.617-6.482 1.968-22.014 14.067-25.911 21.728-18.402 36.171 3.897 61.516 8.976 68.795l4.93 2.238.171 4.619.238 2.9c.444 5.55.614 6.051 3 7.913 5.965 4.763 17.724 9.202 28.359 10.778 4.942.716 15.679.466 19.769-.465Z" clip-rule="evenodd"/>
    <path fill="#E7EAEE" fill-rule="evenodd" d="m100.088 295.147.239 2.9c.443 5.55.614 6.051 3 7.913 3.519 2.81 9.054 5.507 15.185 7.57 4.262 1.434 8.813 2.562 13.173 3.208 4.943.716 15.679.465 19.77-.465 2.022-.461-14.608-14.185-24.405-10.313-7.524 2.974-25.256-19.711-18.046-25.638 8.087-6.648-6.733-32.871-7.21-38.564-.478-5.693-2.357-7.053-2.412-6.853-.055.199-.055.88.093 2.522.636 7.073.613 57.72.613 57.72Z" clip-rule="evenodd"/>
    <path fill="#FFB61D" fill-rule="evenodd" d="M98.313 240.134c.716-.147 1.409.344 1.548 1.096 2.572 13.883 13.454 23.283 32.911 28.198 19.574 4.945 32.906 4.678 39.931-.6.593-.445.151 3.37-.284 3.663-4.581 3.086-20.159 7.691-38.749 3.529-23.769-5.322-34.929-26.318-36.4-34.26-.14-.752.328-1.48 1.043-1.626ZM88.4 215.083c.634-.381 24.241 28.042 56.639 34.475 32.399 6.434 40.242 2.343 41.503-6.433.109-.757.782-1.279 1.503-1.164.721.114 1.217.82 1.108 1.578-1.598 11.122-16.589 13.767-44.558 8.753-27.617-4.95-46.55-16.712-56.684-35.317-.362-.665-.143-1.513.49-1.892Z" clip-rule="evenodd"/>
    <path fill="#00160A" fill-rule="evenodd" d="M224.38 213.507c-.886-.322-1.84-1.038-2.454-1.862l-1.022-1.325 3.613-3.759c5.556-5.73 9.816-11.602 13.497-18.584 1.228-2.327 4.329-10.098 4.329-10.849 0-.251.375-1.254.818-2.292.682-1.504 1.193-2.077 2.659-2.936 1.738-1.074 3.715-1.432 4.567-.824 1.636 1.146 1.636 4.763 0 10.993-1.806 6.839-4.226 11.744-9.237 18.799-.784 1.073-2.25 3.186-3.306 4.654-2.829 3.939-4.67 5.836-7.158 7.305-2.454 1.432-3.886 1.611-6.306.68Zm24.473-3.222 2.454 1.146c.509.246 6.124 3.08 12.867 6.484 10.872 5.488 24.679 12.457 24.763 12.457.137 0 .777-1.554.921-3.366.341-3.902 1.602-9.202 3.067-12.89.682-1.647 1.227-3.706 1.227-3.885 0-.082-.553-.316-1.461-.701-1.08-.457-2.66-1.127-4.401-2.003-8.589-4.332-25.394-13.176-27.473-14.501-2.045-1.253-2.454-1.361-2.454-.537 0 1.074-2.079 6.051-3.681 8.736-.852 1.469-2.522 4.118-3.715 5.873l-2.114 3.187Zm39.505 13.642c.977.595-.716 1.468-1.124 1.611-2.409.215-5.245-.261-7.568-1.683-1.214-.905-10.779-6.487-17.123-10.19-2.901-1.692-5.128-2.992-5.577-3.273-1.432-.895-2.795-1.862-3.034-2.149-.715-.966-.034-1.396 1.977-1.217 1.209.108 30.338 15.616 32.449 16.901Zm-138.556 93.742c2.629-.605 6.711-2.414 9.31-3.566.635-.282 1.182-.524 1.597-.7 2.115-.896 8.556-10.451 10.874-21.229 1.67-7.949 2.522-19.264 1.568-21.162-.576-1.098 2.842 2.588 5.388 5.334.772.833 1.464 1.579 1.94 2.078 14.861 15.505 36.982 27.966 59.955 33.802 11.453 2.936 19.6 3.974 30.541 3.974 18.372 0 32.858-3.795 46.015-12.138.625-.396 1.21-.76 1.768-1.108 4.586-2.852 7.319-4.552 14.797-13.394 8.388-9.918 15.849-32.942 18.338-40.891 1.09-3.581 3.749-17.822 3.749-21.376 0-4.208-1.397-6.195-3.306-8.236-3.375-3.473-7.942-4.726-11.725-3.222l-1.773.716-.545-1.898c-.784-2.865-2.42-5.156-4.942-6.875-3.75-2.614-4.295-2.793-7.67-2.793-2.624 0-3.34.143-5.01.967l-1.943.931-.409-1.289c-.784-2.65-3.414-6.343-5.454-7.412-1.809-.948-4.941-1.035-7.123-.609-4.773.931-8.181 3.258-9.578 6.517-.41 1.002-.921 1.791-1.125 1.791-.171 0-6.885-1.971-14.895-5.695l-3.813-1.776c-14.383-6.697-17.501-8.149-17.218-9.968.238-1.539.17-2.398-.238-3.724-.716-2.219-1.534-2.828-3.852-2.828-1.841 0-1.841 0-1.636-.967 1.09-5.478 1.057-8.629-.102-10.634-.784-1.325-1.705-1.862-3.818-2.185-1.227-.179-1.807-.071-3.17.717-.92.501-1.704.859-1.772.787-.068-.071.17-2.04.545-4.368 2.795-17.223.636-32.062-6.488-47.817l-.238-.533c-2.165-4.884-10.874-24.525-35.778-34.435a472.521 472.521 0 0 1-3.219-1.299c-8.483-3.45-14.123-5.743-27.73-5.72-15.252.027-20.417 2.293-30.473 7.127-1.397.68-2.624 1.073-2.726.93-.103-.179-.75-.608-1.398-.966-.647-.358-2.045-1.253-3.068-1.97-2.931-2.077-4.737-2.936-5.658-2.721-1.056.287-1.056 1.217 0 1.647.443.18.955.788 1.159 1.397.443 1.289.955 1.432 1.261.358.137-.394.341-.68.444-.609a166.905 166.905 0 0 1 2.794 1.396c1.398.716 2.932 1.468 3.341 1.648.75.286.511.501-2.727 2.506-12.646 7.806-22.939 19.944-28.699 33.765-.887 2.077-1.67 3.366-2.489 4.083-2.079 1.826-6.169 7.017-7.124 9.059-.51 1.109-1.602 2.828-2.454 3.831-.818 1.003-1.704 2.292-2.01 2.828-.273.573-.546.967-.648.896-.068-.108.034-1.862.272-3.903.512-4.762.512-6.016.103-6.123-.614-.179-1.5 2.328-1.875 5.443-.273 1.897-.34 4.762-.17 7.698l.204 4.655-2.42-4.118c-.832-1.377-1.651-2.754-2.234-3.732v-.001l-.001-.002-.001-.001v-.001h-.001l-.001-.002c-.37-.62-.643-1.079-.761-1.274-.887-1.36-1.398-3.402-1.023-4.082.204-.393.17-.573-.17-.573-.716 0-2.114 2.399-3.034 5.157-.443 1.289-.886 2.362-1.023 2.362-.51 0-.272-12.818.273-16.936 1.125-8.128 4.09-18.154 5.42-18.154.272 0 .51-.143.51-.358 0-.644-.885-.394-1.601.43-1.602 1.826-3.715 7.448-5.045 13.427-.92 4.118-1.5 9.418-1.704 15.182-.17 4.977-.102 5.801.58 8.522.784 3.044 1.397 3.939 2.454 3.51.375-.144.545-.681.545-1.684 0-.788.409-3.15.92-5.263l.887-3.796.374 1.576c.478 1.826 3.272 7.484 5.795 11.601 1.738 2.793 1.772 2.972 2.352 7.34.307 2.471 1.26 8.481 3.476 17.725 1.958 8.168 12.963 16.27 15.711 18.293l.001.001c.362.266.58.427.615.468.341.394.818.609 1.091.502.307-.108.477.035.477.429 0 .359.239.824.511 1.039.341.25.58 1.217.648 2.9.171 3.366 2.556 9.811 4.397 11.924 1.193 1.36 3.681 1.933 6.442 1.432 1.807-.286 2.318-.501 2.147-.931-.102-.286.546.072 1.432.788 10.362 8.307 20.86 13.284 32.653 15.432 4.568.824 12.135 1.289 16.259.967 3.647-.25 3.647-.25 3.477.501-.239 1.003.068 1.612 5.078 10.527 3.988 7.055 4.329 7.52 8.76 12.282 9.408 10.205 19.667 18.119 31.291 24.241 10.941 5.729 28.409 10.491 44.379 11.996 15.968 1.503 27.438-13.894 27.404-17.832-.068-5.407-.784-8.952-2.522-12.389-1.705-3.331-2.829-4.476-7.943-8.057-5.691-3.974-9.202-7.233-11.52-10.706-1.466-2.184-2.011-4.655-2.011-5.98 0-.859 1.056-2.793 2.624-3.186 1.432-.394 1.705-.359 3.307.465.954.465 3.442 1.683 5.487 2.721a239.795 239.795 0 0 1 4.499 2.22c1.206.352 1.716 2.832 1.993 4.176.061.3.111.544.155.694.477 1.862 2.735 4.266 4.193 5.084 2.558 1.438 8.862 1.63 10.6-.339.444-.501 1.913-1.118 2.215-.931.303.187 1.398 1.736 1.398 2.989.034 2.149 1.091 4.118 3.34 6.087 4.261 3.724 7.567 4.62 10.907 2.972 1.739-.859 3.164-1.195 3.164-1.195s1.42 1.905 1.506 2.556c.67 5.087 7.839 7.22 9.748 7.435.438.046 1.289-.151 2.154-.35 1.156-.267 2.336-.54 2.584-.246.487.577-8.146 15.576-9.339 17.474-11.35 17.903-33.438 28.86-60.467 30.006-17.554.751-39.13-4.405-57.843-13.786-11.963-6.051-22.564-13.463-33.914-23.847a539.118 539.118 0 0 0-5.079-4.547c-.818-.681-2.761-3.008-4.26-5.156-2.523-3.581-3.954-4.87-3.954-3.653 0 .537 1.636 3.831 3.51 7.09.751 1.289 1.227 2.184 1.057 2.041-.17-.144-.716 2.434-1.227 5.729-1.67 10.563-4.431 20.983-7.226 27.463-1.534 3.51-4.475 6.13-5.361 6.846-3.272 2.614-8.171 3.789-14.954 4.505-8.589.895-21.235-1.11-30.881-4.905-2.556-1.003-9.135-3.903-9.578-4.225-.026-.029-.177-1.059-.388-2.496l-.191-1.3c-1.227-8.844-2.931-42.896-2.931-58.651 0-6.517-.069-7.949-.478-7.949-.852 0-1.193.859-1.567 3.938-.853 7.018-.682 43.649.238 51.347l.204 1.755-1.159-.681c-1.772-1.074-8.52-8.271-10.873-11.601-1.99-2.847-3.174-6.493-4.06-9.221a78.836 78.836 0 0 0-.575-1.733c-4.942-14.394-3.204-30.546 3.613-45.084 5.794-12.389 12.918-19.263 23.348-22.593 1.704-.537 3.204-1.11 3.375-1.253.647-.645-3.511-.323-5.795.429-7.43 2.399-15.202 8.952-20.485 17.331-7.43 11.744-10.771 29.075-8.42 43.863.546 3.508 2.762 11.1 3.375 11.636.055.058.335.675.759 1.61 1.173 2.584 3.443 7.587 5.07 9.849 1.977 2.829 7.942 8.987 10.43 10.885l1.568 1.182.239 2.9c.443 5.55.613 6.051 2.999 7.913 5.965 4.763 17.724 9.202 28.359 10.778 4.942.716 15.679.465 19.769-.465Zm115.208-33.623c-19.804-1.826-43.732-11.745-61.047-27.07-7.294-6.481-16.77-19.084-20.519-26.067-.784-1.432-1.363-2.112-2.045-2.291-.716-.215-.102-.43 2.829-.931 12.373-2.221 24.405-7.627 34.119-15.326l1.432-1.11.409 1.039c.92 2.327 4.465 4.691 7.09 4.691 1.056 0 4.601-1.683 6.748-3.223l1.466-1.038 1.193 1.253c1.091 1.146 1.295 1.217 3.341 1.217 2.351 0 5.18-1.11 6.748-2.686l.852-.823 2.42 1.683c1.296.967 4.909 3.079 8.01 4.762a219.837 219.837 0 0 1 14.214 8.415l.75.501-.716 1.003c-.75 1.074-2.147 3.115-2.147 6.23 0 3.509 3.474 9.814 10.123 14.144 5.224 3.401 14.214 10.092 13.872 19.872-.041 1.182-1.295 4.118-2.965 6.768-1.091 1.682-4.124 4.189-6.885 5.657-4.704 2.471-12.987 3.903-19.292 3.33ZM83.268 123.31c.92.215 1.534.538 1.397.681-.443.465-2.794.25-3.34-.323-.852-.859-.648-1.468.546-1.718.613-.107 1.533-.645 2.044-1.182.512-.537.955-.787.955-.608 0 .465-1.704 2.112-2.556 2.47-.546.251-.375.358.954.68Zm13.566.573c.989-.573.784-.967-.375-.787-1.159.179-1.227.036-.477-1.182.307-.465.477-1.146.409-1.504-.102-.466-.341-.25-.886.895-.41.824-.989 1.504-1.262 1.504-.852 0-.92.716-.102 1.039 1.057.465 1.875.465 2.693.035Zm-11.793-19.55c-.819.143-3.375 1.217-5.625 2.399-2.283 1.146-4.226 2.112-4.362 2.077-3.477-.394 1.363-6.481 10.157-12.711 8.419-5.98 14.111-9.131 19.394-10.743 3.307-1.002 7.022-1.145 8.079-.322.579.466.374.502-2.148.537-5.453 0-11.76 2.937-22.019 10.133-5.317 3.724-11.487 9.06-11.487 9.919 0 .179.989-.179 2.216-.752 2.625-1.253 5.317-1.898 6.51-1.611 1.261.358.989.823-.715 1.074Zm13.19 3.079c3.205-.68 3.341-.716 3.341-1.074 0-.179-1.227-.358-2.761-.429l-2.761-.108 2.556-3.043c1.398-1.683 3.034-3.366 3.613-3.76 1.262-.86 1.33-1.468.307-1.827l-.784-.25.852-.323c.477-.178 1.364-.25 1.977-.143.921.144 1.125.072 1.023-.43-.102-.5-.477-.608-2.148-.572-4.874.072-6.953 1.432-3.136 2.077 1.057.179 1.943.465 1.943.644 0 .143-.17.286-.374.286-.648 0-6.136 5.837-6.817 7.269-1.057 2.113-.478 2.435 3.17 1.683Zm22.497-13.892c-.989.071-1.227.25-1.159.751l.01.073c.038.265.06.418.004.464-.077.062-.296-.069-.811-.376l-.09-.053c-.647-.359-.715-.537-.34-.824.238-.215.886-.537 1.397-.645l.954-.25-.715-.788c-.375-.465-.58-.895-.477-1.038.272-.286 3.613.108 4.089.501.205.179.512.143.716-.071.478-.502 1.125-.108 1.125.68 0 .43-.102.465-.409.143-.273-.286-.511-.286-.818-.036-.272.251-.477.251-.647-.036-.103-.179-.75-.357-1.432-.357-.629 0-.926 0-.987.126-.054.112.082.326.339.733.544.892.512.895-.738 1.002h-.011Zm-5.182-9.525c0-.466-.408-1.29-.92-1.826l-.954-1.003 5.113.215c2.829.143 6.033.466 7.158.788 1.124.286 2.42.5 2.897.5.716 0 .579-.142-.75-.894-2.318-1.254-5.283-1.862-10.975-2.292-6.817-.501-10.26.18-9.613 1.97.103.358.648.537 1.466.537 1.67 0 4.397 1.038 5.318 2.005.988 1.038 1.26 1.038 1.26 0ZM98.913 178.81c2.761 3.724 6.408 7.949 8.113 9.381 1.022.859 1.908 1.576 1.976 1.576.034 0-.716-1.648-1.67-3.653-3.851-8.056-6.101-16.077-7.158-25.315-.238-2.041-.613-3.76-1.023-4.476-.817-1.432-.817-3.294.035-5.049.443-.93.681-2.112.681-3.401v-1.969l-1.636 1.789c-1.602 1.755-3.136 2.471-3.136 1.397 0-.788 2.523-4.583 3.852-5.765 1.057-.931 1.193-1.253 1.534-4.046.239-1.683.784-4.655 1.227-6.624.477-1.969.75-3.652.682-3.724-.239-.25-8.249 9.414-9.34 12.496-.24.678-.885 1.862-1.397 2.578l-.886 1.196s.275 1.674.58 3.777c.306 2.126.45 3.586.58 4.888.17 1.74.315 3.195.782 5.572.546 2.936 1.091 5.478 1.227 5.658.103.215.546 1.862.99 3.688.953 4.046 2.555 8.056 3.987 10.026Zm138.317 33.873-.715-.753s11.88-15.856 14.009-21.698c1.624-4.459 2.58-5.723 3.87-5.723.722 0 1.311.173 1.583.603.477.751.937 1.683.324 4.869-1.023 5.156-2.591 8.558-7.295 15.899-1.09 1.682-2.488 3.544-3.101 4.189-1.432 1.396-4.652 2.828-6.527 3.151-1.193.179-1.534.107-2.148-.537Z" clip-rule="evenodd"/>
    <path fill="#fff" d="M331.612 247.712c4.241-12.137 3.599-14.723 2.863-14.976 0 0-1.619.967-2.335 3.008-1.329 3.832-5.879 13.857-7.583 15.648-2.011 2.112-2.011 2.112-4.057 2.112-2.045 0-7.943-3.235-8.746-6.424-1.285-5.103 4.247-22.83 4.383-23.832l-.92-.681c-.613.609-8.594 26.032-19.087 19.407-1.202-.758-3.75-4.332-3.954-6.23-1.136-5.514 4.075-24.796 4.961-28.756.794-3.546 4.923-6.835 10.002-6.835 7.806 0 6.757 7.167 10.253 9.692 1.55 1.12 4.096-.909 4.881-1.063 4.397-.86 6.082.141 9.305 2.828 2.488 2.075 4.329 6.18 6.356 7.627 1.126.804 2.32-.295 2.711-.501 1.604-.846 5.045-.215 5.999.501 1.399.641 4.828 4.103 5.369 6.117 2.455 9.126-5.296 29.359-8.223 33.155-4.844 6.283-16.418 1.341-12.178-10.797Z"/>
    <path fill="#fff" fill-rule="evenodd" d="M135.657 214.455c9.339 6.195 18.969 10.24 29.945 11.35 8.658.86 20.331-.322 28.715-3.186 7.056-2.399 16.6-9.045 22.974-14.667 12.373-10.885 20.178-27.888 23.587-45.934.477-2.542 1.205-8.933 1.17-15.27 0-7.377-3.089-27.533-12.452-39.156-19.312-23.972-51.054-34.77-77.732-25.543-9.624 3.328-19.87 9.358-27.608 17.236-9.748 9.99-16.94 23.596-19.803 37.489-2.999 14.681.903 32.226 7.685 46.62 5.42 11.459 14.35 24.938 23.519 31.061Zm91.007-43.27c-6.408 20.23-23.109 35.341-44.106 39.924-3.204.68-5.419.931-9.919 1.002-3.169.108-6.34.072-6.987 0-14.691-1.862-25.871-7.555-36.164-18.369-4.5-4.762-6.409-7.34-9.203-12.424-4.397-8.057-6.749-16.292-7.465-26.211-2.454-33.98 20.69-62.303 53.275-65.24 12.782-1.145 26.961 2.973 37.732 10.993 3.988 2.972 11.214 10.492 13.464 14 .92 1.397 9.85 15.111 11.419 22.989 2.01 10.24 1.227 23.059-2.046 33.336Z" clip-rule="evenodd"/>
    <path fill="#E7EAEE" fill-rule="evenodd" d="M242.061 146.746c0 24.034-10.822 50.31-24.789 61.531-6.663 5.354-15.371 11.836-22.955 14.341-11.113 3.67-28.715 3.187-28.715 3.187s17.958-2.522 24.613-5.336c19.083-8.068 29.501-20.452 35.934-32.335 12.698-23.456 15.912-41.971 15.912-41.388Z" clip-rule="evenodd"/>
    <path fill="#fff" fill-rule="evenodd" d="M165.993 207.814c-9.101-1.217-18.134-4.619-25.428-9.668-4.328-2.972-10.873-9.954-14.043-14.931-4.533-7.161-7.533-14.824-8.998-23.059-1.057-5.98-1.023-15.182.034-20.518 1.09-5.442 2.488-9.596 4.976-14.859 2.898-6.088 5.965-10.563 10.566-15.397 7.84-8.236 16.941-13.464 27.78-15.97 3.511-.788 16.224-1.432 16.667-.823.103.178.784.644 1.5 1.038.716.43 2.625 1.934 4.193 3.401 2.351 2.15 3.408 3.51 5.453 6.875 1.398 2.292 2.523 4.369 2.523 4.548 0 .394 1.091 1.11 1.704 1.11.852 0 1.431-2.686 1.602-7.412.102-2.614.307-4.762.443-4.762.477 0 5.726 3.043 8.18 4.762 4.807 3.366 9.613 8.092 13.158 13.034 1.601 2.219 1.84 2.792 1.84 4.153 0 1.254.341 2.22 1.397 4.154 2.659 4.869 4.738 10.992 5.999 17.76.818 4.547.818 13.141-.034 17.903-2.317 13.105-9.202 26.139-18.167 34.41-7.601 6.982-15.679 11.279-25.223 13.392-3.272.752-13.089 1.253-16.122.859Zm-24.371-24.492c.306-.357.511-.895.409-1.145-.031-.075-.458-.286-1.083-.595-1.456-.719-3.988-1.969-5.085-3.272-4.363-5.228-5.965-9.131-6.953-17.188-.955-7.841-.153-13.142 1.568-21.663.839-4.156 3.07-7.589 4.458-9.725.944-1.452 1.498-2.305.96-2.377-1.33-.215-1.534-.108-2.932 1.289-3 3.007-4.363 5.406-5.794 10.026-2.216 7.233-2.644 26.78 1.74 35.592 4.384 8.812 11.928 9.99 12.712 9.058Zm48.469-30.077c-.579 5.562-3.034 13.607-5.897 17.115-1.329 1.648-6.209 4.476-10.328 3.904-3.978-.554-7.089-2.507-9.748-6.696-2.284-3.617-3.463-8.006-4.261-13.535-1.377-9.547 4.636-20.661 7.226-23.418 2.625-2.829 4.5-3.831 6.886-3.867 2.317 0 3.817.537 6.169 2.292 4.295 3.151 11.078 13.396 9.953 24.205Zm-45.947-29.612c.682-.824.784-1.218.58-2.757-.137-1.432-.41-2.005-1.125-2.614-1.261-1.074-2.83-1.074-3.988.072-.818.823-.92 1.11-.818 3.079.102 2.112.17 2.255 1.295 2.9 1.5.86 2.966.609 4.056-.68Zm21.269-22.093c-6.135 4.619-8.793 6.517-11.554 8.307-2.182 1.432-2.864 1.469-2.864.179 0-.68.478-1.432 1.705-2.614l1.703-1.646-3.305-.466c-3.716-.501-7.329-1.576-8.113-2.399-1.295-1.396-.17-1.719 3.511-1.003 1.636.287 4.806.645 7.056.716l4.09.18 2.965-2.256c6.51-4.942 13.259-7.734 16.497-6.875 2.011.501 1.773 1.074-.511 1.36-2.624.323-4.226 1.254-11.18 6.517Z" clip-rule="evenodd"/>
    <path fill="#fff" d="M174.173 169.358c0-.179.204-.358.477-.358s.614.179.716.358c.102.215-.102.358-.477.358-.409 0-.716-.143-.716-.358Zm2.046-.323c0-.394.851-.752 1.806-.752.75.036.75.036.102.537-.75.608-1.908.716-1.908.215Zm-5.284-.931c-.102-.286-.238-.787-.341-1.074-.102-.358.068-.537.511-.537.375 0 .682.215.682.502 0 .286.102.751.205 1.073.136.395.034.573-.341.573-.307 0-.648-.25-.716-.537Zm1.806-.896c-.171-1.074.204-1.432 1.431-1.432.375 0 .682.358.819.967.272 1.038-.171 1.54-1.364 1.54-.545 0-.784-.251-.886-1.075Zm-3.477.18c-.647-.538-.647-.538.069-.538.443 0 .75.216.75.538 0 .644 0 .644-.819 0Zm6.852-.037c-.443-.465-.238-1.861.307-2.076.989-.394 1.432-.215 1.636.716.137.537.205 1.003.137 1.038-.273.322-1.875.537-2.08.322Zm3.034-.75c-.102-.107-.205-.572-.205-1.002 0-.609.273-.859 1.091-1.038.716-.143 1.159-.072 1.363.214.342.573.342 1.289.035 1.469-.614.357-2.046.573-2.284.357Zm-11.453-1.11c0-.43.307-.788.75-.895.887-.251.852-.287 1.023.644.068.537-.103.752-.819.824-.749.107-.954-.036-.954-.573Zm2.59.035c-.477-.537-.17-1.54.477-1.54.443 0 .682.251.682.681 0 .68-.784 1.253-1.159.859Zm2.045-1.073c-.272-.68.307-1.182 1.432-1.182.511 0 .75.215.75.681 0 .394-.307.752-.75.895-1.125.286-1.193.286-1.432-.394Zm9.851-.109c.102-.179.272-.358.375-.358.102 0 .068.179-.035.358-.102.215-.272.359-.375.359-.101 0-.068-.144.035-.359Zm-6.783-.608c-.273-.716.068-1.074 1.159-1.254.613-.071.886.073.955.573.238 1.182-1.705 1.827-2.114.681Zm-8.18-.608c-.307-1.181-.239-1.289.648-1.289.477 0 .852.144.852.322 0 .179.102.573.205.86.101.358-.103.573-.682.68-.648.143-.887 0-1.023-.573Zm11.384-.395c0-.644.238-.931.886-1.11.954-.251 1.5.25 1.5 1.396 0 .466-.273.609-1.193.609-1.057 0-1.193-.107-1.193-.895Zm-12.407.001c-.102-.287-.034-.537.136-.537.205 0 .342.25.342.537 0 .286-.069.537-.137.537s-.205-.251-.341-.537Zm3.442.286c-.477-.465-.204-1.468.409-1.647.375-.107.75-.071.853.036.409.394.17 1.432-.341 1.647-.648.251-.648.251-.921-.036Zm12.169-.25c-.375-1.039.034-1.826.989-1.933.715-.108.92.035.92.608 0 1.182-.375 1.826-1.057 1.826-.375 0-.75-.215-.852-.501Zm-9.782-.466c-.409-.394-.273-1.11.306-1.325.648-.25 2.012.466 1.637.859-.478.43-1.705.753-1.943.466Zm2.964-.896c-.306-.501.784-1.361 1.671-1.361.409 0 .579.215.511.609-.136.716-1.875 1.289-2.182.752Zm-9.338-.25c0-.179-.102-.573-.204-.895-.103-.323-.069-.573.136-.573.443 0 .784 1.36.375 1.647-.17.108-.307.035-.307-.179Zm.92-.823c-.205-.787.205-1.36.989-1.36.443 0 .886 1.396.613 1.862-.375.609-1.432.25-1.602-.502Zm2.386.178c-.511-.537-.204-1.826.478-2.005.511-.143.784.035 1.056.68.204.466.307.931.239 1.003-.341.322-1.568.572-1.773.322Zm9.202.001c-.443-.465-.238-.752.784-1.146.853-.286 1.091-.251 1.262.179.307.859-1.398 1.683-2.046.967Zm3-.825c-.341-.572.137-1.074 1.023-1.074 1.057 0 1.363.931.409 1.218-1.023.286-1.193.25-1.432-.144Zm2.898-.859c0-.536.613-1.109.886-.823.239.25-.239 1.325-.58 1.325-.17 0-.306-.215-.306-.502Zm-18.85-.464c-.136-.108-.239-.573-.204-.967 0-.681.034-.681.34.107.341.86.273 1.29-.136.86Zm.649-.537c-.307-1.254-.273-1.361.613-1.361.989 0 1.602 1.325.852 1.826-.784.502-1.227.358-1.465-.465Zm11.725.715c0-.107.17-.68.375-1.324.477-1.433 1.534-1.505 1.772-.108.102.537.137 1.003.102 1.038-.17.215-2.249.537-2.249.394Zm-9.306-.894c-.136-.107-.239-.537-.239-.931 0-.573.103-.609.512-.251.272.251.511.681.511.931 0 .537-.409.68-.784.251Zm12.271-.717c-.205-1.11.238-1.611 1.295-1.468.511.071.681.394.681 1.182 0 .895-.136 1.11-.886 1.181-.749.108-.92-.071-1.09-.895Zm3.34.143c-.443-1.433-.307-1.862.614-1.97.818-.107.92 0 .92.932 0 .787-.204 1.11-.716 1.253-.375.107-.75 0-.818-.215Zm-19.19-2.041c0-.681.068-.967.171-.609.068.322.068.895 0 1.253-.103.323-.171.036-.171-.644Zm.853.466c-.443-.429-.239-1.826.307-2.041.784-.322 1.159.072 1.159 1.254 0 .751-.171 1.038-.614 1.038-.341 0-.75-.108-.852-.251Zm2.045-.968c-.137-.536-.205-1.109-.069-1.217.341-.358.546.215.443 1.254l-.102 1.002-.272-1.039Zm11.009-.249c0-.394.17-.609.341-.501.204.107.34.465.34.752 0 .286-.136.501-.34.501-.171 0-.341-.322-.341-.752Zm1.534.466c-.477-.538-.102-1.504.682-1.719.988-.251 1.022-.251 1.329.787.204.645.068.789-.818.932-.545.107-1.091.071-1.193 0Zm3.135-.681c-.375-.359-.272-1.54.103-1.54.204 0 .34-.143.34-.358 0-.179-.204-.358-.476-.358-.58 0-1.057-1.755-.58-2.256.613-.645 1.295.035 1.704 1.79.239.931.478 2.006.579 2.363.137.466 0 .609-.647.609-.443 0-.92-.107-1.023-.25Zm1.841-1.897c-.238-1.075-.851-3.223-1.295-4.799-.682-2.291-.75-2.864-.375-3.115.239-.179.546-.322.648-.322.375 0 1.738 7.34 1.602 8.773l-.102 1.432-.478-1.969Zm-20.758-.18c0-.573.069-.788.171-.43.068.322.068.824 0 1.075-.102.214-.171-.037-.171-.645Zm.682-.073c.136-1.253 1.125-1.54 1.397-.394.239.931.307.824-.716 1.181-.715.216-.783.144-.681-.787Zm14.384-.322c-.272-1.039.307-1.647 1.398-1.504.818.107 1.125 1.647.443 2.113-.852.572-1.636.322-1.841-.609Zm-12.407-.286c0-.609.17-.931.545-.931.341 0 .477.25.409.787-.17 1.146-.954 1.254-.954.144Zm-3.034-1.504c0-.394.103-.501.205-.214.102.25.068.572-.034.68-.103.143-.205-.072-.171-.466Zm.648-.107c0-.538.204-.753.716-.753.477 0 .647.18.579.609-.17.931-1.295 1.039-1.295.144Zm1.875-.322c-.238-.645-.238-.645.784-.931.613-.215.75-.107.75.429 0 .86-1.227 1.289-1.534.502Zm12.339-.502c-.239-.895.204-1.361 1.397-1.361.579 0 .75.215.75.895 0 .537-.204.896-.477.896s-.716.107-.989.214c-.307.108-.545-.107-.681-.644Zm2.965-.823c-.273-.716.136-1.253.92-1.253.478 0 .648.251.648.896 0 .644-.17.895-.682.895-.375 0-.784-.251-.886-.538Zm-17.52-.502c0-.752.784-1.611 1.125-1.217.136.107.239.608.239 1.074 0 .573-.205.823-.682.823-.443 0-.682-.25-.682-.68Zm1.875-.43c-.273-.895.034-1.289 1.193-1.468 1.057-.143 1.398 1.039.477 1.755-.886.68-1.431.573-1.67-.287Zm12.339-.214c-.239-.214-.341-1.539-.136-1.539.034 0 .545-.143 1.159-.323 1.022-.322 1.09-.286 1.056.681-.034.716-.238 1.074-.75 1.217-.92.251-1.057.251-1.329-.036Zm-1.262-.824c0-.251.103-.358.239-.251a.448.448 0 0 1 0 .501c-.136.108-.239 0-.239-.25Zm3.818-.573c.103-.609 1.159-1.504 1.398-1.218.102.108.272.538.375 1.003.238.716.136.788-.818.788-.818 0-1.057-.144-.955-.573Zm-16.429-.035c0-.18.17-.537.34-.824.273-.429.342-.394.342.287 0 .43-.137.787-.342.787-.17 0-.34-.107-.34-.25Zm1.022-.789c0-1.002.716-1.325 1.262-.573.34.537.34.717 0 .967-.716.466-1.262.323-1.262-.394Zm10.362-.464c-.613-.716-.613-.751-.033-.537.34.143.783.251.954.251.17 0 .306.251.306.537 0 .752-.477.681-1.227-.251Zm-7.327-.036c-1.466-1.182-1.67-3.831-.307-3.831.92 0 1.773 1.503 1.636 2.9-.102 1.289-.511 1.575-1.329.931Zm9.339.214a.395.395 0 0 1 .477 0c.102.143 0 .251-.238.251-.239 0-.342-.108-.239-.251Zm5.147-1.396c.102-.323.204-.645.204-.716 0-.072.171-.144.341-.144.205 0 .341.323.341.717 0 .429-.239.716-.546.716-.374 0-.476-.18-.34-.573Zm-17.861-.108c0-.823.716-2.184 1.124-2.184.716 0 .205 2.292-.545 2.435-.307.071-.579-.036-.579-.251Zm7.669-.394-1.023-.251.92-.25c.955-.286 1.637-.072 1.637.537 0 .358-.035.358-1.534-.036Zm-1.193-1.719c0-1.468.784-1.683 1.5-.394.477.86.511 1.039.068 1.039-.272 0-.716.107-1.022.214-.409.18-.546-.035-.546-.859Zm5.931.502c-1.534-.716-2.523-2.614-2.523-4.87 0-1.611.137-2.005 1.057-2.9.58-.573 1.159-1.038 1.329-1.038.75 0 3.511 2.757 4.431 4.475l1.057 1.97-1.125 1.253c-1.295 1.432-2.726 1.826-4.226 1.11Zm-7.124-.93c-.102-.179-.034-.358.136-.358.205 0 .375.179.375.358 0 .215-.068.358-.136.358-.102 0-.272-.143-.375-.358Zm-4.465-.573c.102-.323.204-.645.204-.717 0-.071.307-.143.682-.143.852 0 .886.573.034 1.075-.92.501-1.159.465-.92-.215Zm2.693-.43c-.785-.107-1.023-.573-.512-.895.137-.108.75-.287 1.364-.43.92-.215 1.09-.143 1.09.466 0 .752-.715 1.074-1.942.859Zm2.624-1.217c0-.43.035-.68.103-.609.034.072.306.43.545.788.409.501.375.608-.102.608-.341 0-.546-.286-.546-.787Zm-4.772-.251c0-.215.17-.465.34-.573.205-.107.341.036.341.322 0 .323-.136.573-.341.573-.17 0-.34-.143-.34-.322Zm1.261-.539c-.273-.716 2.147-1.503 2.557-.823.306.573 0 .823-1.296 1.11-.784.179-1.124.107-1.261-.287Zm3.205-1.144c0-.394.102-.502.204-.215.102.251.068.573-.034.68-.102.144-.205-.072-.17-.465Zm-2.898-.573c.409-.788 1.602-2.077 1.909-2.077.341 0 .375 1.683.034 1.898-.171.072-.716.251-1.227.394-.75.179-.921.143-.716-.215Zm2.727-.824c-.375-1.074-.205-1.54.613-1.683.852-.179.852-.179.307.931-.682 1.433-.648 1.433-.92.752Zm-.205-2.148c0-.072.682-.573 1.534-1.074 1.022-.645 1.738-.859 2.249-.716.614.214.443.358-1.056 1.11-1.67.787-2.727 1.074-2.727.68Zm18.918-31.724c-.92-1.397-2.864-3.652-4.261-5.013-1.397-1.36-2.318-2.47-2.045-2.47.75 0 6.476 1.646 7.908 2.29 1.193.538 1.227.61.92 1.72-.17.644-.307 2.256-.307 3.58 0 1.361-.102 2.435-.238 2.435-.171 0-1.023-1.146-1.977-2.542Zm-69.364 108.457c-1.397-.752-1.704-1.182-3.476-4.87-2.556-5.227-2.625-6.445-.205-3.473.954 1.182 3.17 3.617 4.909 5.407 2.965 3.007 3.101 3.223 2.113 3.08-.716-.108-.989-.037-.818.25.409.644-.886.466-2.523-.394Z"/>
    <path fill="#00160A" fill-rule="evenodd" d="M177.441 274.627c-.283-.707.032-1.519.704-1.816l.735-.328c7.139-3.209 11.238-5.137 14.022-8.198 2.784-3.061 3.118-7.558 3.641-10.294.143-.75 1.762.568 2.477.719.715.151 1.178.882 1.034 1.633-.629 3.289-2.323 6.425-5.05 9.402-2.717 2.967-7.979 6.148-15.835 9.621-.672.298-1.445-.034-1.728-.739Zm32.287-142.869c.627-.392 1.437-.176 1.809.482 3.734 6.589 5.735 14.121 5.735 21.957 0 23.741-18.321 42.987-40.92 42.987a39.135 39.135 0 0 1-17.164-3.953c-.661-.322-3.161-2.882-.644-1.841 2.518 1.042 12.257 3.379 17.878 3.379 21.141 0 36.098-18.363 36.098-40.572 0-7.333-2.792-13.842-3.251-20.538-.053-.777-.167-1.51.459-1.901ZM78.998 236.707c.466-.588 1.3-1.777 1.86-1.287 2.297 2.011 4.75 4.34 7.372 4.79 2.73.468 5.968.468 9.71-.008.725-.092 1.382.45 1.47 1.21.087.76-.429 1.451-1.152 1.543-3.975.505-7.457.505-10.453-.008-3.102-.532-5.987-1.967-8.637-4.287a1.435 1.435 0 0 1-.17-1.953Z" clip-rule="evenodd"/>
    <path fill="#fff" d="M107.025 188.192c-1.704-1.432-5.351-5.657-8.112-9.381-1.432-1.969-3.034-5.98-3.988-10.026-.443-1.826-.886-3.473-.989-3.688-.136-.179-.682-2.721-1.227-5.658-.818-4.153-.645-5.491-1.363-10.459-.304-2.104-.58-3.778-.58-3.778l.887-1.195c.51-.716 1.157-1.901 1.397-2.578 1.091-3.083 9.101-12.747 9.339-12.497.069.072-.204 1.755-.681 3.724-.443 1.969-.989 4.941-1.227 6.624-.341 2.793-.478 3.116-1.534 4.046-1.33 1.182-3.852 4.977-3.852 5.766 0 1.073 1.534.357 3.136-1.397l1.636-1.79v1.969c0 1.289-.238 2.471-.681 3.401-.853 1.755-.853 3.617-.035 5.049.41.717.784 2.435 1.023 4.476 1.057 9.238 3.306 17.259 7.158 25.316.954 2.005 1.704 3.652 1.67 3.652-.068 0-.954-.717-1.977-1.576Z"/>
    <path fill="#fff" fill-rule="evenodd" d="m248.853 210.285 2.454 1.146c.509.246 6.123 3.08 12.866 6.484 10.872 5.488 24.68 12.457 24.764 12.457.136 0 .776-1.553.92-3.365.341-3.903 1.602-9.203 3.068-12.891.681-1.647 1.227-3.705 1.227-3.884 0-.082-.554-.317-1.461-.701-1.08-.458-2.66-1.127-4.402-2.003-8.589-4.333-25.393-13.177-27.473-14.502-2.044-1.253-2.454-1.36-2.454-.537 0 1.075-2.079 6.052-3.681 8.737-.852 1.468-2.522 4.118-3.715 5.872l-2.113 3.187Zm39.505 13.642c.977.595-.716 1.468-1.125 1.612-2.409.215-5.244-.261-7.567-1.683-1.215-.905-10.78-6.487-17.124-10.19-2.9-1.692-5.128-2.993-5.577-3.274-1.432-.894-2.795-1.861-3.034-2.148-.715-.967-.033-1.396 1.977-1.217 1.209.107 30.338 15.615 32.45 16.9Z" clip-rule="evenodd"/>
    <path fill="#fff" d="M224.38 213.508c-.886-.322-1.84-1.039-2.454-1.862l-1.023-1.325 3.613-3.76c5.557-5.729 9.646-11.99 13.328-18.972 1.227-2.328 4.874-11.714 5.317-12.753.682-1.503 1.193-2.076 2.659-2.936 1.738-1.074 3.715-1.432 4.567-.823 1.636 1.145 1.636 4.762 0 10.992-1.806 6.839-4.226 11.745-9.237 18.799-.784 1.074-2.249 3.187-3.306 4.655-2.829 3.939-4.67 5.836-7.158 7.304-2.454 1.432-3.886 1.612-6.306.681Zm12.851-.826-.716-.751s11.88-15.856 14.009-21.699c1.624-4.459 2.58-5.723 3.87-5.723.722 0 1.311.173 1.583.603.478.752.937 1.683.324 4.869-1.023 5.156-2.59 8.558-7.294 15.899-1.091 1.682-2.488 3.544-3.102 4.189-1.432 1.397-4.653 2.829-6.527 3.151-1.193.179-1.534.107-2.147-.538Z"/>
    <path fill="#E7EAEE" fill-rule="evenodd" d="M257.185 196.103c.688-1.651 1.178-3.092 1.178-3.614 0-.823.409-.716 2.454.537 2.079 1.325 18.883 10.169 27.473 14.502 3.204 1.611 5.862 2.525 5.862 2.704 0 .179-37.695-12.377-36.967-14.129Zm-116.62 2.042c-4.329-2.972-10.873-9.954-14.043-14.931-4.533-7.162-7.533-14.824-8.999-23.06-1.056-5.979-1.022-15.181.035-20.517 1.091-5.443 2.488-9.596 4.976-14.86 2.897-6.087 5.965-10.562 10.567-15.396 4.512-4.74-15.543 14.863-10.567 49.936 3.988 29.392 21.127 40.971 18.031 38.828Z" clip-rule="evenodd"/>
  </g>
  <defs>
    <clipPath id="a">
      <path fill="#fff" d="M0 0h396v416H0z"/>
    </clipPath>
  </defs>
</svg>
