<svg width="670" height="464" viewBox="0 0 670 464" fill="none" xmlns="http://www.w3.org/2000/svg">
<path d="M610.773 49.9985H477.602C470.822 49.9985 465.325 55.4661 465.325 62.2108V251.64C465.325 258.385 470.822 263.853 477.602 263.853H610.773C617.553 263.853 623.05 258.385 623.05 251.64V62.2108C623.05 55.4661 617.553 49.9985 610.773 49.9985Z" stroke="#FEC601" stroke-width="4.83" stroke-miterlimit="10"/>
<path d="M605.026 72.0305H484.965C481.575 72.0305 478.827 74.7643 478.827 78.1367V103.537C478.827 106.91 481.575 109.643 484.965 109.643H605.026C608.416 109.643 611.164 106.91 611.164 103.537V78.1367C611.164 74.7643 608.416 72.0305 605.026 72.0305Z" stroke="#FEC601" stroke-width="4.83" stroke-miterlimit="10"/>
<path d="M544.187 87.8742C546.347 87.8742 548.098 86.1326 548.098 83.9844C548.098 81.8363 546.347 80.0947 544.187 80.0947C542.028 80.0947 540.277 81.8363 540.277 83.9844C540.277 86.1326 542.028 87.8742 544.187 87.8742Z" fill="#1E1E1E"/>
<path d="M533.261 101.586C533.261 98.703 534.412 95.9384 536.461 93.9003C538.51 91.8615 541.289 90.7166 544.187 90.7166C547.085 90.7166 549.865 91.8615 551.914 93.9003C553.963 95.9384 555.114 98.703 555.114 101.586H533.261Z" fill="#1E1E1E"/>
<path d="M544.984 149.957C540.819 149.959 536.747 151.189 533.284 153.492C529.82 155.795 527.122 159.068 525.529 162.897C523.936 166.726 523.52 170.938 524.334 175.003C525.147 179.066 527.153 182.799 530.1 185.729C533.046 188.658 536.799 190.653 540.885 191.461C544.971 192.269 549.206 191.854 553.054 190.267C556.902 188.681 560.192 185.996 562.506 182.55C564.82 179.104 566.056 175.054 566.056 170.91C566.056 168.158 565.51 165.432 564.452 162.89C563.392 160.347 561.841 158.037 559.883 156.091C557.927 154.146 555.604 152.602 553.048 151.55C550.491 150.497 547.751 149.956 544.984 149.957ZM544.984 186.807C544.193 186.768 543.447 186.428 542.901 185.858C542.355 185.288 542.051 184.53 542.051 183.743C542.051 182.955 542.355 182.197 542.901 181.627C543.447 181.057 544.193 180.717 544.984 180.679C545.775 180.717 546.521 181.057 547.067 181.627C547.613 182.197 547.918 182.955 547.918 183.743C547.918 184.53 547.613 185.288 547.067 185.858C546.521 186.428 545.775 186.768 544.984 186.807ZM548.872 163.241C548.223 167.784 547.677 172.554 546.312 176.972C545.988 178.037 543.981 178.037 543.656 176.972C542.695 173.651 541.956 170.27 541.443 166.852C541.022 164.364 539.561 160.335 540.956 157.92C542.188 155.718 545.656 155.498 547.67 156.628C550.141 158.016 549.168 160.981 548.872 163.241Z" fill="#1E1E1E"/>
<path d="M314.506 92.456C307.121 90.2653 299.249 90.3027 291.885 92.5624C284.521 94.8229 277.997 99.2043 273.136 105.153C268.275 111.102 265.298 118.351 264.58 125.984C263.861 133.616 265.433 141.289 269.1 148.032C272.765 154.775 278.358 160.286 285.172 163.867C291.986 167.448 299.714 168.938 307.38 168.15C315.045 167.361 322.304 164.329 328.237 159.437C334.17 154.546 338.512 148.013 340.712 140.667C342.175 135.789 342.656 130.673 342.13 125.61C341.605 120.548 340.082 115.638 337.648 111.161C335.214 106.684 331.919 102.729 327.948 99.5191C323.977 96.309 319.409 93.9091 314.506 92.456ZM294.933 157.774C293.526 157.312 292.355 156.322 291.669 155.015C290.983 153.709 290.836 152.188 291.26 150.775C291.683 149.362 292.643 148.169 293.937 147.449C295.23 146.729 296.754 146.539 298.186 146.92C298.922 147.115 299.612 147.455 300.213 147.92C300.815 148.385 301.317 148.966 301.688 149.627C302.06 150.288 302.296 151.018 302.379 151.771C302.463 152.524 302.394 153.286 302.176 154.013C301.959 154.739 301.596 155.415 301.112 155.999C300.627 156.584 300.029 157.066 299.353 157.417C298.678 157.767 297.939 157.98 297.18 158.041C296.42 158.102 295.656 158.012 294.933 157.774ZM314.336 118.04C310.773 125.754 307.261 133.922 302.532 141.034C301.396 142.751 297.832 141.694 297.825 139.639C297.885 133.253 298.378 126.878 299.3 120.557C299.876 115.941 299.426 108.03 303.181 104.477C306.516 101.3 312.772 102.665 315.76 105.718C319.353 109.446 316.063 114.194 314.336 118.04Z" fill="#F4978F"/>
<path d="M205.682 178.27C202.98 181.005 201.154 184.476 200.436 188.243C199.716 192.01 200.136 195.905 201.643 199.435C203.149 202.965 205.673 205.971 208.897 208.074C212.12 210.177 215.898 211.282 219.753 211.249C223.607 211.216 227.366 210.048 230.553 207.89C233.74 205.732 236.212 202.684 237.656 199.128C239.102 195.573 239.454 191.672 238.671 187.917C237.887 184.163 236.002 180.724 233.253 178.035C229.565 174.43 224.589 172.43 219.419 172.474C214.249 172.518 209.308 174.603 205.682 178.27ZM230.133 202.173C229.871 202.439 229.559 202.651 229.214 202.796C228.869 202.942 228.5 203.018 228.126 203.022C227.752 203.025 227.381 202.955 227.034 202.816C226.687 202.677 226.371 202.471 226.104 202.21C225.837 201.95 225.625 201.639 225.479 201.296C225.332 200.954 225.255 200.586 225.251 200.214C225.248 199.842 225.318 199.473 225.459 199.128C225.598 198.783 225.805 198.469 226.067 198.203C226.596 197.667 227.319 197.362 228.074 197.355C228.83 197.348 229.556 197.64 230.096 198.166C230.635 198.692 230.941 199.411 230.949 200.163C230.955 200.914 230.662 201.637 230.133 202.173ZM217.022 184.347C219.612 187.723 222.423 191.179 224.466 194.937C224.961 195.84 223.662 197.139 222.747 196.684C219.93 195.154 217.218 193.438 214.632 191.546C212.706 190.218 209.091 188.559 208.39 186.071C207.755 183.87 209.865 181.418 211.887 180.839C214.373 180.119 215.709 182.681 217.022 184.347Z" fill="#F4978F"/>
<path d="M492.063 126.435H594.962" stroke="#FEC601" stroke-width="4.83" stroke-miterlimit="10"/>
<path d="M492.063 136.511H594.962" stroke="#FEC601" stroke-width="4.83" stroke-miterlimit="10"/>
<path d="M492.063 201.388H594.962" stroke="#FEC601" stroke-width="4.83" stroke-miterlimit="10"/>
<path d="M515.96 210.923H571.058" stroke="#FEC601" stroke-width="4.83" stroke-miterlimit="10"/>
<path d="M623.057 188.163C632.132 199.509 640.764 213.571 648.57 230.899C696.098 336.479 636.691 390.062 636.691 390.062" stroke="#FEC601" stroke-width="4.83" stroke-miterlimit="10"/>
<path d="M126.635 271.882C126.635 271.882 56.1101 192.305 144.055 152.901C231.999 113.497 249.411 108.022 243.066 67.0333C236.721 26.0444 286.596 -15.6931 365.03 11.8873C443.464 39.4676 445.036 91.4432 439.473 131.625C436.315 154.53 449.381 160.034 465.296 158.882" stroke="#FEC601" stroke-width="4.83" stroke-miterlimit="10"/>
<path d="M618.084 424.403C617.905 428.796 616.762 433.097 614.735 437.004C614.655 437.199 614.561 437.387 614.454 437.569C610.898 443.924 605.923 449.383 599.913 453.525L599.699 453.671C594.273 457.282 588.17 459.766 581.756 460.974H650.031C650.031 460.974 640.897 331.402 556.951 268.359C475.713 207.356 399.654 236.757 394.829 238.724C396.324 242.922 396.992 247.367 396.799 251.817C396.799 251.817 402.908 254.98 403.926 266.304C404.944 277.628 407.069 309.113 386.64 315.043C386.64 315.043 368.298 314.595 363.451 307.594C358.604 300.592 357.438 302.016 355.535 303.792C354.059 305.135 345.154 309.935 341.044 312.137C341.564 312.162 342.08 312.233 342.586 312.35C342.586 312.35 344.94 332.106 373.736 363.07C374.711 364.093 375.633 365.165 376.495 366.285C380.843 370.067 385.73 373.927 391.155 377.866L424.016 401.784C424.758 402.411 425.637 402.856 426.584 403.083C428.422 403.544 430.344 403.562 432.191 403.134C436.013 402.4 462.108 399.751 478.996 398.078C479.38 398.078 479.786 398.004 480.162 397.96L482.375 397.747C482.73 397.747 483.113 397.674 483.423 397.652L485.415 397.461C486.389 397.366 487.267 397.27 488.079 397.204L490.292 396.992C492.247 396.801 493.405 396.683 493.501 396.683C497.524 396.57 501.535 396.182 505.505 395.524C509.305 394.79 512.772 393.608 513.672 391.649C513.843 391.235 513.906 390.786 513.857 390.342C513.653 389.095 513.129 387.923 512.337 386.937C508.869 382.306 500.813 378.336 500.223 378.049C500.206 378.043 500.188 378.043 500.171 378.049L500.009 377.932L452.052 340.869H452.001C452.001 340.869 459.224 264.22 525.042 283.081C525.042 283.081 525.352 283.294 525.92 283.764C528.487 285.731 536.566 292.248 548.444 304.423C548.754 304.754 549.086 305.084 549.418 305.436C550.68 306.713 551.919 308.042 553.152 309.341C561.489 318.206 571.353 329.501 582.235 343.585L582.309 343.658C594.778 359.804 603.764 374.6 609.607 387.693V387.737C615.93 401.967 618.593 414.158 618.07 423.882C618.086 424.055 618.091 424.229 618.084 424.403ZM419.567 292.659C417.62 270.326 428.546 262.238 429.159 261.79C413.621 289.752 442.439 332.613 443.45 334.272C442.623 333.582 421.515 314.984 419.567 292.659Z" fill="#353642"/>
<path d="M378.295 288.277C377.487 288.869 376.644 289.413 375.772 289.907L370.711 281.1C382.383 275.162 385.659 264.697 380.524 258.95C379.088 257.378 377.237 256.239 375.182 255.662C370.017 254.106 366.439 256.396 364.012 259.471C362.031 262.144 360.578 265.168 359.733 268.381L357.268 240.111L357.077 237.909C357.077 237.909 351.705 235.26 337.156 237.623C322.607 239.986 319.929 247.978 313.68 244.433C307.431 240.889 303.889 241.175 303.889 241.175C302.111 247.67 297.353 247.67 297.353 247.67C296.225 247.534 295.118 247.266 294.055 246.87C287.304 240.698 285.474 229.99 285.474 229.99C292.557 229.117 293.103 222.335 292.291 216.78C296.216 219.099 301.75 219.26 309.519 214.299C331.807 200.12 354.664 207.797 362.699 208.978C366.284 209.499 370.209 208.244 373.463 206.777C373.883 207.526 374.469 208.17 375.175 208.663C380.598 212.421 385.071 217.38 388.241 223.15C409.157 262.04 386.227 282.692 378.295 288.277Z" fill="#F4978F"/>
<path d="M294.8 460.987H303.211C306.808 460.983 310.256 459.56 312.8 457.03C315.343 454.499 316.775 451.069 316.778 447.49V438.126C316.778 437.272 316.61 436.427 316.28 435.639C315.952 434.85 315.47 434.133 314.863 433.53C314.256 432.927 313.536 432.449 312.743 432.123C311.95 431.797 311.1 431.63 310.242 431.631H259.939C259.941 433.624 259.547 435.598 258.782 437.44C258.016 439.282 256.891 440.955 255.474 442.364C254.057 443.773 252.374 444.89 250.522 445.652C248.67 446.413 246.686 446.804 244.682 446.801H62.9125C62.9147 450.563 64.4176 454.17 67.092 456.829C69.7658 459.49 73.392 460.985 77.1739 460.987H323.596C323.917 460.988 324.237 460.925 324.534 460.804C324.831 460.681 325.102 460.502 325.33 460.275C325.557 460.049 325.738 459.78 325.861 459.484C325.983 459.188 326.046 458.871 326.045 458.551V443.351C326.045 440.398 327.224 437.567 329.323 435.479C331.422 433.391 334.269 432.218 337.237 432.218C340.206 432.218 343.053 433.391 345.152 435.479C347.251 437.567 348.43 440.398 348.43 443.351V458.551C348.429 458.87 348.491 459.187 348.613 459.483C348.736 459.778 348.915 460.046 349.142 460.273C349.369 460.499 349.639 460.679 349.935 460.801C350.232 460.924 350.55 460.987 350.872 460.987H650.031C650.031 460.987 640.897 331.386 556.951 268.35C475.713 207.348 399.654 236.748 394.829 238.715L394.593 238.803" stroke="black" stroke-width="4.83" stroke-miterlimit="10"/>
<path d="M310.714 270.435C310.711 271.25 310.465 272.046 310.009 272.722C309.551 273.398 308.903 273.925 308.146 274.235C307.388 274.545 306.556 274.625 305.752 274.464C304.949 274.304 304.212 273.911 303.633 273.335C303.054 272.758 302.66 272.023 302.501 271.224C302.341 270.425 302.423 269.597 302.736 268.844C303.049 268.091 303.579 267.448 304.26 266.994C304.941 266.54 305.741 266.297 306.56 266.296C306.881 266.297 307.201 266.337 307.512 266.413C307.083 266.548 306.708 266.816 306.442 267.178C306.176 267.54 306.034 267.977 306.036 268.424C306.034 268.705 306.088 268.984 306.195 269.245C306.301 269.505 306.458 269.742 306.658 269.941C306.856 270.141 307.093 270.3 307.353 270.409C307.614 270.517 307.893 270.574 308.176 270.575C308.692 270.564 309.19 270.375 309.58 270.038C309.971 269.702 310.231 269.24 310.315 268.733C310.57 269.265 310.706 269.846 310.714 270.435Z" fill="black"/>
<path d="M339.495 271.586C339.496 272.405 339.254 273.206 338.797 273.888C338.341 274.569 337.692 275.101 336.931 275.416C336.171 275.73 335.335 275.813 334.527 275.654C333.719 275.496 332.977 275.101 332.394 274.523C331.812 273.945 331.415 273.207 331.253 272.404C331.092 271.601 331.174 270.768 331.489 270.011C331.804 269.254 332.337 268.608 333.022 268.153C333.706 267.697 334.511 267.454 335.334 267.454C335.532 267.453 335.731 267.475 335.924 267.52C335.556 267.689 335.245 267.959 335.026 268.299C334.807 268.638 334.691 269.033 334.692 269.436C334.667 270.001 334.868 270.552 335.251 270.969C335.634 271.386 336.168 271.634 336.736 271.659C337.303 271.685 337.857 271.485 338.277 271.104C338.696 270.722 338.946 270.192 338.971 269.626C339.312 270.225 339.492 270.899 339.495 271.586Z" fill="black"/>
<path d="M372.688 200.964C372.209 204.178 372.806 206.997 375.182 208.67C380.605 212.428 385.079 217.387 388.248 223.157C413.2 269.533 375.772 289.943 375.772 289.943L370.711 281.136C385.282 273.739 386.773 259.251 375.182 255.699C363.591 252.147 359.733 268.418 359.733 268.418L357.077 237.924C357.077 237.924 351.706 235.274 337.156 237.638C322.607 240.001 319.929 247.993 313.68 244.448C307.431 240.903 303.889 241.19 303.889 241.19C302.111 247.685 297.353 247.685 297.353 247.685C283.408 245.916 280.133 226.724 280.133 226.724C287.208 225.844 287.754 219.062 286.95 213.514C290.867 215.833 296.408 216.002 304.177 211.033C326.466 196.854 349.322 204.538 357.35 205.72C362.898 206.52 369.265 203.144 372.688 200.964Z" stroke="black" stroke-width="4.83" stroke-linecap="round" stroke-linejoin="round"/>
<path d="M385.555 430.942L391.066 428.74L395.198 439.829L394.549 459.953L388.964 460.958L367.767 460.048C367.767 460.048 369.243 447.777 373.751 441.943C378.258 436.108 385.555 430.942 385.555 430.942Z" fill="#F4978F"/>
<path d="M289.045 254.466C289.045 254.466 294.689 244.389 306.568 245.439" stroke="black" stroke-width="4.83" stroke-miterlimit="10"/>
<path d="M329.83 245.437C329.83 245.437 343.405 242.406 348.157 249.914" stroke="black" stroke-width="4.83" stroke-miterlimit="10"/>
<path d="M350.864 291.058C350.864 291.058 342.749 286.383 336.81 294.243" stroke="black" stroke-width="4.83" stroke-miterlimit="10"/>
<path d="M299.581 247.054C299.581 247.054 293.804 314.654 336.883 313.406C344.261 313.194 351.595 308.372 358.604 300.614" stroke="black" stroke-width="4.83" stroke-miterlimit="10"/>
<path d="M375.772 306.763L358.604 300.613C358.604 300.613 362.861 314.146 383.947 315.181C405.033 316.216 412.108 268.079 396.615 248.711" stroke="black" stroke-width="4.83" stroke-linejoin="round"/>
<path d="M442.896 442.374C442.896 442.374 427.159 455.078 437.85 460.986" stroke="black" stroke-width="4.83" stroke-miterlimit="10"/>
<path d="M430.723 430.552C430.723 430.552 403.425 445.92 426.864 460.987" stroke="black" stroke-width="4.83" stroke-miterlimit="10"/>
<path d="M421.515 418.737C421.515 418.737 385.282 435.617 413.2 460.989" stroke="black" stroke-width="4.83" stroke-miterlimit="10"/>
<path d="M573.883 460.987C573.883 460.987 617.841 460.987 618.431 418.736C619.021 376.485 533.194 270.391 477.654 255.632C422.113 240.873 419.73 281.318 419.73 282.977C419.73 284.636 416.469 302.059 430.723 320.649C441.731 335.019 490.351 370.892 511.924 386.48C512.716 387.054 513.315 387.854 513.639 388.774C513.963 389.694 513.999 390.689 513.74 391.63C513.481 392.57 512.941 393.409 512.191 394.037C511.441 394.664 510.516 395.049 509.541 395.141L414.13 404.256H414.071C413.171 404.417 379.498 410.597 369.243 421.092C369.243 421.092 363.495 425.326 366.469 431.829C369.442 438.331 378.576 436.188 378.827 435.946" stroke="black" stroke-width="4.83" stroke-miterlimit="10"/>
<path opacity="0.26" d="M335.341 279.263C341.902 279.263 347.22 273.973 347.22 267.447C347.22 260.922 341.902 255.632 335.341 255.632C328.781 255.632 323.463 260.922 323.463 267.447C323.463 273.973 328.781 279.263 335.341 279.263Z" fill="white"/>
<path opacity="0.26" d="M305.195 278.097C311.756 278.097 317.074 272.806 317.074 266.281C317.074 259.755 311.756 254.465 305.195 254.465C298.635 254.465 293.317 259.755 293.317 266.281C293.317 272.806 298.635 278.097 305.195 278.097Z" fill="white"/>
<path d="M407.873 429.078C403.698 427.919 396.873 426.876 389.842 429.122C386.404 430.224 383.231 432.02 380.524 434.399C379.933 434.913 379.365 435.434 378.819 435.955C377.642 437.103 376.531 438.315 375.492 439.588C375.355 439.756 375.161 439.868 374.946 439.903C372.327 440.263 355.085 442.978 355.173 451.646C355.254 459.433 363.827 460.71 366.779 460.915C366.9 460.926 367.023 460.912 367.139 460.874C367.254 460.835 367.361 460.774 367.452 460.692C367.543 460.611 367.616 460.512 367.666 460.401C367.717 460.291 367.744 460.17 367.745 460.049C367.745 457.275 368.38 448.578 375.278 439.83" stroke="black" stroke-width="4.83" stroke-miterlimit="10"/>
<path d="M252.524 367.905C254.546 384.117 241.878 391.449 228.03 392.535" stroke="black" stroke-width="4.83" stroke-miterlimit="10"/>
<path d="M207.903 389.153C202.623 386.315 198.346 381.932 195.65 376.598C192.956 371.264 191.974 365.234 192.837 359.326C195.051 343.731 208.331 331.768 221.331 324.18C248.629 308.246 310.146 319.776 320.482 322.125C328.406 323.93 335.031 317.765 337.717 314.785C337.831 314.659 337.979 314.567 338.143 314.523C338.308 314.477 338.482 314.48 338.645 314.53C338.808 314.581 338.954 314.676 339.064 314.806C339.173 314.936 339.244 315.094 339.266 315.262C344.94 348.288 410.832 393.116 426.075 403.148" stroke="black" stroke-width="4.83" stroke-miterlimit="10"/>
<path d="M269.147 356.693L247.33 370.16C246.03 370.966 244.575 371.491 243.059 371.702C241.542 371.914 239.998 371.806 238.525 371.387C237.052 370.968 235.684 370.246 234.51 369.27C233.335 368.292 232.379 367.08 231.704 365.713C230.487 363.257 230.246 360.435 231.028 357.81C231.81 355.184 233.559 352.948 235.924 351.549L269.125 331.872" stroke="black" stroke-width="4.83" stroke-miterlimit="10"/>
<path d="M335.341 279.263C341.902 279.263 347.22 273.973 347.22 267.447C347.22 260.922 341.902 255.632 335.341 255.632C328.781 255.632 323.463 260.922 323.463 267.447C323.463 273.973 328.781 279.263 335.341 279.263Z" stroke="black" stroke-width="4.83" stroke-miterlimit="10"/>
<path d="M305.195 276.328C310.774 276.328 315.296 271.83 315.296 266.281C315.296 260.731 310.774 256.233 305.195 256.233C299.617 256.233 295.095 260.731 295.095 266.281C295.095 271.83 299.617 276.328 305.195 276.328Z" stroke="white" stroke-width="4.83" stroke-miterlimit="10"/>
<path d="M305.195 278.097C311.756 278.097 317.074 272.806 317.074 266.281C317.074 259.755 311.756 254.465 305.195 254.465C298.635 254.465 293.317 259.755 293.317 266.281C293.317 272.806 298.635 278.097 305.195 278.097Z" stroke="black" stroke-width="4.83" stroke-miterlimit="10"/>
<path d="M323.522 266.282H317.074" stroke="black" stroke-width="4.83" stroke-miterlimit="10"/>
<path d="M323.522 282.978H319.272C319.005 282.978 318.741 282.921 318.499 282.808C318.257 282.694 318.043 282.529 317.873 282.325C317.702 282.12 317.579 281.881 317.512 281.623C317.445 281.365 317.437 281.097 317.487 280.835L320.298 266.282" stroke="black" stroke-width="4.83" stroke-miterlimit="10"/>
<path d="M238.256 323.306C238.256 323.306 223.109 326.557 217.767 349.309C214.521 363.121 210.065 380.742 207.069 392.455C206.685 393.958 206.651 395.527 206.969 397.045C207.288 398.563 207.951 399.988 208.907 401.212C209.864 402.436 211.089 403.427 212.488 404.108C213.889 404.79 215.426 405.145 216.985 405.145C219.312 405.145 221.571 404.356 223.386 402.908C225.203 401.461 226.468 399.441 226.975 397.182L233.312 368.897" stroke="black" stroke-width="4.83" stroke-miterlimit="10"/>
<path d="M252.104 376.487C252.104 376.487 268.003 367.034 299.322 376.487C330.642 385.94 366.646 392.354 378.524 367.284" stroke="black" stroke-width="4.83" stroke-miterlimit="10"/>
<path d="M389.849 429.121C389.849 429.121 400.916 441.686 394.187 460.988" stroke="black" stroke-width="4.83" stroke-miterlimit="10"/>
<path d="M24.149 272.878H199.005C204.637 272.871 210.108 274.749 214.536 278.21C218.965 281.672 222.094 286.515 223.419 291.96L251.255 406.641C252.007 409.735 252.042 412.959 251.359 416.069C250.677 419.179 249.294 422.095 247.314 424.596C245.334 427.097 242.81 429.119 239.931 430.509C237.052 431.899 233.894 432.621 230.693 432.621H56.2872C50.6659 432.627 45.2056 430.754 40.7825 427.303C36.3598 423.852 33.2301 419.023 31.8958 413.591L3.60898 298.932C2.84515 295.834 2.79926 292.604 3.47471 289.487C4.15015 286.369 5.5293 283.445 7.50783 280.935C9.48644 278.425 12.0127 276.396 14.8956 275C17.7786 273.604 20.9428 272.879 24.149 272.878Z" fill="#F4978F"/>
<path d="M30.5161 277.813H194.571C199.856 277.819 204.986 279.589 209.139 282.841C213.292 286.091 216.23 290.634 217.479 295.742L243.612 403.326C244.317 406.229 244.352 409.252 243.711 412.17C243.072 415.088 241.775 417.824 239.918 420.17C238.061 422.517 235.693 424.413 232.992 425.718C230.291 427.022 227.328 427.699 224.326 427.699H60.6696C55.401 427.688 50.2874 425.924 46.1432 422.689C41.9983 419.453 39.0609 414.931 37.7981 409.843L11.2377 302.252C10.5205 299.345 10.4772 296.314 11.1113 293.388C11.7453 290.463 13.04 287.719 14.8973 285.364C16.7546 283.01 19.1259 281.106 21.8318 279.798C24.5378 278.49 27.5075 277.81 30.5161 277.813Z" fill="#F4978F"/>
<path d="M24.149 272.878H199.005C204.637 272.871 210.108 274.749 214.536 278.21C218.965 281.672 222.094 286.515 223.419 291.96L251.255 406.641C252.006 409.735 252.042 412.959 251.359 416.069C250.677 419.179 249.294 422.095 247.314 424.596C245.334 427.097 242.81 429.119 239.931 430.509C237.052 431.899 233.894 432.621 230.693 432.621H56.2872C50.6659 432.627 45.2056 430.754 40.7825 427.303C36.3598 423.852 33.2301 419.023 31.8958 413.591L3.60898 298.932C2.84515 295.834 2.79926 292.604 3.47471 289.487C4.15015 286.369 5.5293 283.445 7.50783 280.935C9.48644 278.425 12.0127 276.396 14.8956 275C17.7786 273.604 20.9428 272.879 24.149 272.878Z" stroke="black" stroke-width="4.83" stroke-miterlimit="10"/>
<path d="M106.044 349.265L95.6187 300.922C95.4026 299.9 94.8389 298.982 94.0236 298.324C93.2084 297.665 92.191 297.305 91.1404 297.304H39.5541C38.8601 297.306 38.1758 297.464 37.5526 297.768C36.9296 298.072 36.3841 298.512 35.9575 299.057C35.531 299.602 35.2346 300.236 35.0908 300.911C34.947 301.586 34.9594 302.285 35.1274 302.955L47.1902 351.863C47.34 352.544 47.6595 353.178 48.1198 353.705C48.533 354.227 49.0591 354.649 49.6596 354.941C50.2602 355.232 50.9198 355.384 51.5875 355.385H51.6834L101.61 354.798C102.284 354.789 102.947 354.631 103.553 354.337C104.159 354.042 104.692 353.619 105.114 353.096C105.544 352.565 105.85 351.946 106.011 351.284C106.172 350.622 106.183 349.932 106.044 349.265ZM38.5729 302.089C38.5354 301.944 38.5319 301.793 38.5626 301.646C38.5933 301.5 38.6574 301.363 38.7499 301.245C38.8446 301.122 38.9663 301.022 39.1058 300.954C39.2451 300.885 39.3985 300.849 39.5541 300.848H91.1404C91.3728 300.848 91.5985 300.926 91.7785 301.072C91.9593 301.218 92.0825 301.422 92.129 301.648L100.068 338.469C73.5588 313.009 70.556 342.219 70.556 342.219C55.5937 334.469 51.2702 342.953 50.016 348.538L38.5729 302.089Z" fill="#1E1E1E"/>
<path d="M53.4688 319.637C56.3462 318.749 57.7111 314.955 56.5307 311.161C55.3502 307.366 52.0523 305.018 49.1528 305.906C46.2533 306.794 44.9105 310.588 46.0983 314.375C47.2862 318.162 50.5988 320.525 53.4688 319.637Z" fill="#1E1E1E"/>
<path d="M66.0998 318.771H83.0247C85.1274 318.771 87.2374 318.771 89.3401 318.771H89.6426C90.2344 318.787 90.8231 318.677 91.3691 318.448C91.7461 318.262 92.067 317.979 92.2979 317.63C92.5296 317.28 92.6632 316.876 92.686 316.457C92.7082 316.039 92.6189 315.623 92.4263 315.25C92.2338 314.878 91.9453 314.563 91.5904 314.338C91.1927 314.158 90.8305 313.91 90.5206 313.604C90.3155 313.282 90.1746 312.923 90.1075 312.547C89.7164 311.485 88.9617 310.593 87.9752 310.03C87.2574 309.55 86.4502 309.219 85.6003 309.056C84.7511 308.893 83.8776 308.902 83.0321 309.083C82.1976 309.293 81.434 309.718 80.8187 310.316C80.2949 310.83 80.1916 311.52 79.7858 312.092C79.5202 312.466 79.3505 312.349 78.989 312.143C78.6274 311.938 78.4282 311.784 78.1331 311.637C77.551 311.327 76.9468 311.06 76.3255 310.837C75.0602 310.371 73.7108 310.174 72.3636 310.257C69.9953 310.441 67.6344 311.842 66.8081 314.059C66.0636 314.069 65.3465 314.343 64.7873 314.831C64.2273 315.319 63.8606 315.991 63.7536 316.723C63.7049 317.006 63.7234 317.296 63.8075 317.57C63.8923 317.844 64.0406 318.095 64.2406 318.301C64.7784 318.685 65.4424 318.853 66.0998 318.771Z" fill="#1E1E1E"/>
<path d="M187.437 317.727L186.079 312.171C185.169 308.436 183.022 305.115 179.984 302.74C176.947 300.365 173.195 299.075 169.331 299.078H150.687C148.56 299.076 146.461 299.562 144.553 300.498C142.646 301.435 140.982 302.796 139.689 304.478C138.397 306.158 137.513 308.114 137.104 310.19C136.695 312.266 136.774 314.409 137.333 316.45L138.875 322.094C139.86 325.725 142.021 328.932 145.023 331.218C148.026 333.504 151.702 334.741 155.483 334.739H174.016C176.109 334.738 178.175 334.263 180.057 333.351C181.939 332.439 183.589 331.114 184.881 329.476C186.174 327.838 187.075 325.929 187.518 323.894C187.96 321.859 187.932 319.75 187.437 317.727ZM166.933 319.099L160.566 322.996C160.321 323.151 160.043 323.248 159.754 323.278C159.465 323.308 159.173 323.272 158.9 323.17C158.628 323.07 158.383 322.907 158.184 322.696C157.986 322.485 157.839 322.231 157.755 321.954L155.358 314.16C155.257 313.815 155.257 313.447 155.358 313.101C155.459 312.755 155.657 312.445 155.928 312.207C156.199 311.969 156.534 311.812 156.891 311.755C157.249 311.698 157.614 311.743 157.947 311.885L166.779 315.767C167.094 315.909 167.365 316.134 167.561 316.418C167.757 316.702 167.87 317.033 167.89 317.378C167.909 317.722 167.832 318.064 167.669 318.368C167.505 318.672 167.261 318.925 166.963 319.099H166.933Z" fill="white"/>
<path d="M183.276 367.633H150.658C149.165 367.631 147.704 367.196 146.455 366.383C145.205 365.571 144.22 364.413 143.619 363.053C143.433 362.635 143.333 362.183 143.324 361.725C143.332 360.84 143.69 359.994 144.322 359.37C144.953 358.746 145.806 358.395 146.696 358.393H181.372C179.742 361.138 180.568 364.932 183.276 367.633Z" fill="#1E1E1E"/>
<path d="M204.406 364.301C204.404 365.185 204.05 366.031 203.422 366.655C202.795 367.28 201.944 367.631 201.056 367.633H183.276C180.568 364.932 179.742 361.138 181.372 358.393H197.028C198.519 358.394 199.977 358.825 201.227 359.634C202.476 360.443 203.462 361.595 204.066 362.951C204.271 363.373 204.386 363.833 204.406 364.301Z" fill="#F4978F"/>
<path d="M196.209 367.634C196.117 367.811 196.011 367.98 195.892 368.14C193.56 371.303 188.514 371.597 184.596 368.749C184.128 368.412 183.686 368.039 183.276 367.634C180.568 364.933 179.742 361.139 181.372 358.394C181.464 358.219 181.57 358.052 181.689 357.895C183.999 354.709 189.067 354.431 192.963 357.256C193.435 357.603 193.881 357.983 194.298 358.394C197.028 361.094 197.817 364.889 196.209 367.634Z" fill="white"/>
<path d="M212.573 384.706C212.565 385.591 212.207 386.437 211.576 387.061C210.944 387.685 210.091 388.036 209.201 388.038H79.926C81.5786 385.278 80.7523 381.499 78.0372 378.805H205.24C206.731 378.805 208.191 379.237 209.44 380.049C210.689 380.861 211.672 382.018 212.271 383.378C212.462 383.795 212.565 384.247 212.573 384.706Z" fill="#F4978F"/>
<path d="M79.9259 388H63.82C62.3289 388.001 60.8703 387.57 59.6205 386.761C58.3714 385.952 57.385 384.799 56.7814 383.443C56.5918 383.018 56.4915 382.558 56.4863 382.092C56.4856 381.655 56.5712 381.222 56.7394 380.818C56.9076 380.413 57.154 380.046 57.4654 379.737C57.7767 379.428 58.1464 379.183 58.5536 379.017C58.9601 378.851 59.3962 378.766 59.8359 378.768H78.0372C80.7522 381.461 81.5786 385.241 79.9259 388Z" fill="#1E1E1E"/>
<path d="M79.9259 388C79.8499 388.181 79.7511 388.351 79.6308 388.507C77.3215 391.692 72.2529 391.964 68.35 389.138C67.88 388.792 67.4359 388.411 67.022 388C64.3291 385.3 63.5027 381.527 65.1111 378.768C65.2004 378.589 65.3066 378.42 65.4284 378.261C67.7598 375.098 72.8063 374.805 76.7239 377.645C77.1917 377.983 77.6307 378.359 78.0372 378.768C80.7523 381.461 81.5786 385.241 79.9259 388Z" fill="white"/>
<path d="M91.3322 408.191H70.8659C69.3756 408.19 67.917 407.759 66.6679 406.949C65.4188 406.141 64.4324 404.989 63.8274 403.633C63.6245 403.224 63.5087 402.776 63.488 402.32C63.4903 401.433 63.8451 400.583 64.4759 399.956C65.106 399.328 65.9604 398.975 66.8524 398.973H89.4066C87.8351 401.747 88.6393 405.52 91.3322 408.191Z" fill="#F4978F"/>
<path d="M219.59 404.911C219.578 405.792 219.215 406.631 218.582 407.246C217.949 407.861 217.096 408.201 216.21 408.192H91.3322C88.6392 405.491 87.8129 401.719 89.4213 398.959H212.256C213.748 398.958 215.208 399.391 216.456 400.203C217.705 401.015 218.689 402.171 219.287 403.531C219.483 403.966 219.585 404.436 219.59 404.911Z" fill="#1E1E1E"/>
<path d="M104.258 408.191C104.169 408.369 104.063 408.539 103.941 408.697C101.632 411.883 96.5631 412.154 92.6676 409.329C92.1954 408.983 91.749 408.603 91.3322 408.191C88.6392 405.49 87.8129 401.718 89.4213 398.958C89.5135 398.782 89.6198 398.613 89.7385 398.452C92.07 395.289 97.1164 395.01 101.034 397.836C101.503 398.172 101.942 398.548 102.347 398.958C105.062 401.681 105.889 405.476 104.258 408.191Z" fill="white"/>
<g opacity="0.21">
<path opacity="0.21" d="M107.829 351.032L97.4263 302.689C97.2109 301.667 96.648 300.749 95.832 300.092C95.0167 299.434 93.9978 299.076 92.9479 299.078H41.3543C40.6556 299.078 39.9665 299.238 39.3397 299.544C38.7129 299.85 38.1653 300.297 37.7392 300.847C37.3165 301.386 37.0237 302.015 36.883 302.683C36.7423 303.353 36.7576 304.045 36.9276 304.707L48.9904 353.623C49.138 354.304 49.4545 354.938 49.9127 355.465C50.3273 355.987 50.8556 356.408 51.4569 356.698C52.0589 356.988 52.7192 357.138 53.3877 357.138H53.5057L103.425 356.544C104.097 356.535 104.76 356.379 105.364 356.086C105.969 355.793 106.501 355.37 106.922 354.848C107.346 354.318 107.647 353.7 107.804 353.041C107.96 352.382 107.969 351.695 107.829 351.032ZM40.3509 303.863C40.3133 303.718 40.3104 303.566 40.3428 303.419C40.3745 303.273 40.4409 303.136 40.5354 303.019C40.6276 302.896 40.7479 302.796 40.8866 302.727C41.0245 302.658 41.1773 302.622 41.3322 302.623H92.9184C93.1508 302.622 93.3766 302.699 93.5581 302.843C93.7396 302.988 93.865 303.19 93.9145 303.416L101.853 340.236C75.3369 314.769 72.3415 343.986 72.3415 343.986C57.3865 336.236 53.0557 344.72 51.8088 350.305L40.3509 303.863Z" fill="#1E1E1E"/>
<path opacity="0.21" d="M55.2543 321.405C58.1243 320.517 59.4966 316.723 58.3088 312.936C57.1209 309.149 53.8378 306.786 50.9309 307.674C48.024 308.562 46.6886 312.356 47.869 316.151C49.0495 319.945 52.4212 322.323 55.2543 321.405Z" fill="#1E1E1E"/>
<path opacity="0.21" d="M67.9147 320.544H84.8322C86.9423 320.544 89.045 320.544 91.1551 320.544H91.4502C92.0427 320.561 92.6307 320.451 93.1767 320.222C93.5559 320.037 93.8783 319.755 94.1107 319.406C94.3438 319.056 94.4789 318.65 94.501 318.232C94.5239 317.813 94.4331 317.395 94.2391 317.022C94.0458 316.65 93.7551 316.335 93.398 316.112C93.004 315.926 92.6432 315.678 92.3282 315.378C92.129 315.05 91.9895 314.69 91.915 314.314C91.524 313.255 90.7722 312.367 89.7902 311.804C89.0723 311.322 88.263 310.99 87.4123 310.827C86.5616 310.664 85.6866 310.674 84.8396 310.857C84.0192 311.068 83.2704 311.494 82.6705 312.09C82.1393 312.604 82.0434 313.286 81.6376 313.866C81.372 314.24 81.2023 314.123 80.8408 313.91C80.4793 313.697 80.2801 313.558 79.985 313.403C79.4029 313.096 78.7986 312.832 78.1774 312.611C76.9121 312.143 75.5627 311.943 74.2155 312.024C71.8472 312.207 69.4862 313.616 68.6525 315.825C67.9081 315.838 67.1924 316.113 66.6339 316.603C66.0754 317.092 65.711 317.764 65.6055 318.497C65.5575 318.779 65.5767 319.069 65.6593 319.342C65.7427 319.615 65.888 319.866 66.085 320.075C66.6177 320.446 67.2677 320.613 67.9147 320.544Z" fill="#1E1E1E"/>
<path opacity="0.21" d="M189.252 319.496L187.894 313.947C186.982 310.211 184.834 306.889 181.796 304.512C178.757 302.137 175.004 300.846 171.139 300.847H152.465C150.341 300.846 148.245 301.331 146.339 302.267C144.433 303.202 142.77 304.561 141.479 306.24C140.187 307.918 139.302 309.87 138.891 311.943C138.481 314.017 138.556 316.157 139.111 318.197L140.653 323.848C141.64 327.48 143.802 330.687 146.806 332.972C149.809 335.259 153.487 336.496 157.268 336.493H175.802C177.896 336.494 179.962 336.022 181.846 335.113C183.729 334.203 185.381 332.88 186.676 331.243C187.972 329.607 188.876 327.699 189.322 325.664C189.768 323.63 189.744 321.521 189.252 319.496ZM168.741 320.853L162.352 324.773C162.107 324.928 161.829 325.024 161.541 325.054C161.253 325.084 160.961 325.048 160.689 324.946C160.417 324.846 160.172 324.683 159.975 324.472C159.777 324.261 159.631 324.007 159.548 323.73L157.187 315.929C157.088 315.584 157.09 315.218 157.192 314.873C157.294 314.529 157.491 314.22 157.763 313.982C158.034 313.745 158.366 313.588 158.723 313.532C159.08 313.475 159.445 313.52 159.777 313.661L168.542 317.536C168.853 317.679 169.119 317.904 169.312 318.186C169.505 318.467 169.618 318.796 169.638 319.136C169.659 319.476 169.587 319.816 169.428 320.118C169.27 320.42 169.033 320.674 168.741 320.853Z" fill="#1E1E1E"/>
<path opacity="0.21" d="M185.061 369.401H152.443C150.952 369.398 149.492 368.964 148.242 368.153C146.993 367.342 146.008 366.186 145.405 364.829C145.175 364.322 145.077 363.765 145.121 363.211C145.165 362.657 145.349 362.123 145.656 361.657C145.963 361.193 146.382 360.813 146.877 360.552C147.37 360.292 147.922 360.16 148.481 360.168H183.158C181.534 362.906 182.346 366.707 185.061 369.401Z" fill="#1E1E1E"/>
<path opacity="0.21" d="M206.147 366.068C206.147 366.951 205.795 367.797 205.169 368.422C204.542 369.046 203.692 369.399 202.805 369.4H185.061C182.346 366.707 181.52 362.905 183.15 360.168H198.813C200.304 360.167 201.764 360.597 203.014 361.406C204.263 362.215 205.249 363.369 205.852 364.725C206.041 365.149 206.141 365.606 206.147 366.068Z" fill="#F4978F"/>
<path opacity="0.21" d="M197.987 369.402C197.9 369.581 197.794 369.751 197.67 369.908C195.338 373.071 190.292 373.365 186.374 370.524C185.908 370.184 185.469 369.809 185.061 369.402C182.346 366.708 181.52 362.907 183.15 360.169C183.242 359.991 183.351 359.821 183.475 359.663C185.784 356.477 190.853 356.206 194.748 359.031C195.221 359.377 195.667 359.757 196.083 360.169C198.776 362.87 199.603 366.642 197.987 369.402Z" fill="white"/>
<path opacity="0.21" d="M214.351 386.442C214.343 387.326 213.985 388.172 213.353 388.795C212.722 389.417 211.869 389.766 210.979 389.766H81.7114C83.364 387.007 82.5377 383.234 79.8226 380.534H207.018C208.512 380.534 209.973 380.967 211.223 381.781C212.474 382.594 213.458 383.752 214.056 385.113C214.246 385.532 214.346 385.984 214.351 386.442Z" fill="#F4978F"/>
<path opacity="0.21" d="M81.7114 389.766H65.598C64.1084 389.765 62.6506 389.335 61.4015 388.528C60.1524 387.72 59.1652 386.57 58.5595 385.216C58.3743 384.79 58.274 384.331 58.2644 383.866C58.2644 382.982 58.6171 382.135 59.2457 381.51C59.8735 380.885 60.7257 380.534 61.614 380.534H79.8226C82.5377 383.234 83.364 387.007 81.7114 389.766Z" fill="#1E1E1E"/>
<path opacity="0.21" d="M81.7114 389.768C81.6354 389.95 81.5336 390.121 81.4089 390.275C79.0996 393.46 74.031 393.739 70.1355 390.913C69.6625 390.565 69.2162 390.182 68.8001 389.768C66.1071 387.075 65.2808 383.295 66.8966 380.536C66.9836 380.356 67.0899 380.186 67.2138 380.029C69.5452 376.866 74.5917 376.573 78.5094 379.42C78.9734 379.76 79.4124 380.133 79.8226 380.536C82.5377 383.237 83.364 387.009 81.7114 389.768Z" fill="white"/>
<path opacity="0.21" d="M93.1103 409.986H72.6145C71.1249 409.983 69.6685 409.552 68.4195 408.745C67.1711 407.938 66.1832 406.789 65.576 405.436C65.3908 405.017 65.2905 404.566 65.2809 404.108C65.2846 403.22 65.6409 402.368 66.2725 401.741C66.904 401.112 67.7599 400.757 68.6526 400.754H91.2068C89.5911 403.513 90.4174 407.293 93.1103 409.986Z" fill="#F4978F"/>
<path opacity="0.21" d="M221.375 406.676C221.374 407.113 221.286 407.544 221.117 407.947C220.949 408.35 220.701 408.715 220.391 409.023C220.079 409.33 219.71 409.574 219.305 409.739C218.899 409.904 218.464 409.988 218.025 409.986H93.1102C90.4173 407.293 89.591 403.513 91.2068 400.754H214.034C215.528 400.754 216.99 401.187 218.239 402C219.489 402.814 220.474 403.972 221.072 405.333C221.264 405.756 221.367 406.213 221.375 406.676Z" fill="#1E1E1E"/>
<path opacity="0.21" d="M106.044 409.988C105.951 410.166 105.843 410.336 105.719 410.494C103.41 413.679 98.3412 413.958 94.4456 411.133C93.9727 410.784 93.5264 410.402 93.1102 409.988C90.4173 407.294 89.591 403.515 91.2068 400.755C91.2938 400.575 91.4 400.406 91.524 400.249C93.8554 397.086 98.9019 396.814 102.82 399.64C103.284 399.979 103.723 400.352 104.133 400.755C106.848 403.456 107.674 407.25 106.044 409.988Z" fill="white"/>
</g>
</svg>
