<svg xmlns="http://www.w3.org/2000/svg" width="543" height="633" fill="none" viewBox="0 0 543 633">
  <path stroke="#CCDDE2" stroke-miterlimit="10" stroke-width="4.5" d="M155.954 239.646h-47.213a9.339 9.339 0 0 1-3.829-.826 10.001 10.001 0 0 1-3.246-2.354 10.968 10.968 0 0 1-2.167-3.523 11.643 11.643 0 0 1-.757-4.154V105.693c0-1.424.26-2.834.761-4.149a10.94 10.94 0 0 1 2.169-3.516 9.962 9.962 0 0 1 3.243-2.349 9.316 9.316 0 0 1 3.826-.822h77.946a9.326 9.326 0 0 1 3.835.814 9.992 9.992 0 0 1 3.255 2.346 10.958 10.958 0 0 1 2.176 3.52c.504 1.317.765 2.729.766 4.156v33.201"/>
  <path stroke="#CCDDE2" stroke-miterlimit="10" stroke-width="4.5" d="M184.319 109.773h-72.188c-2.763 0-5.003 2.429-5.003 5.425v14.616c0 2.996 2.24 5.425 5.003 5.425h72.188c2.763 0 5.003-2.429 5.003-5.425v-14.616c0-2.996-2.24-5.425-5.003-5.425Z"/>
  <path fill="#D7E8F0" d="M147.718 120.497c1.341 0 2.427-1.178 2.427-2.632 0-1.454-1.086-2.632-2.427-2.632s-2.427 1.178-2.427 2.632c0 1.454 1.086 2.632 2.427 2.632Zm-6.785 9.289a7.933 7.933 0 0 1 .39-2.954 7.492 7.492 0 0 1 1.44-2.544 6.826 6.826 0 0 1 2.253-1.715 6.337 6.337 0 0 1 2.695-.605 6.34 6.34 0 0 1 2.695.605 6.836 6.836 0 0 1 2.253 1.715 7.506 7.506 0 0 1 1.439 2.544c.315.945.448 1.951.391 2.954h-13.556Zm7.282 32.747c-2.588 0-5.118.832-7.269 2.391-2.153 1.56-3.83 3.775-4.82 6.368a15.31 15.31 0 0 0-.745 8.199c.506 2.752 1.751 5.28 3.581 7.264 1.831 1.985 4.161 3.336 6.7 3.884 2.538.547 5.169.266 7.56-.808s4.435-2.892 5.872-5.226c1.438-2.333 2.205-5.077 2.205-7.883a15.233 15.233 0 0 0-.994-5.431 14.333 14.333 0 0 0-2.836-4.604 13.054 13.054 0 0 0-4.246-3.075 12.18 12.18 0 0 0-5.008-1.079Zm0 24.948a1.909 1.909 0 0 1-1.162-.713 2.21 2.21 0 0 1-.46-1.359c0-.498.163-.979.46-1.359a1.909 1.909 0 0 1 1.162-.713 1.79 1.79 0 0 1 .832.048c.27.082.521.226.736.423.214.197.386.443.504.719.119.277.179.578.179.882 0 .305-.06.606-.179.883-.118.276-.29.521-.504.719a1.911 1.911 0 0 1-.736.422 1.777 1.777 0 0 1-.832.048Zm2.42-15.953a66.337 66.337 0 0 1-1.594 9.296.979.979 0 0 1-.342.394.876.876 0 0 1-.481.146.876.876 0 0 1-.481-.146.979.979 0 0 1-.342-.394 56.066 56.066 0 0 1-1.369-6.853c-.264-1.68-1.168-4.41-.303-6.048.762-1.463 2.918-1.638 4.164-.875 1.529.945.929 2.947.748 4.48Z"/>
  <path stroke="#CCDDE2" stroke-miterlimit="10" stroke-width="4.5" d="M115.345 146.608h63.912m-63.912 6.825h63.912m-63.912 43.925h63.912m-49.066 6.456h34.219"/>
  <path fill="#3FBDF1" d="M510.189 213.341h-97.97c-8.157 0-14.77 7.171-14.77 16.016v181.449c0 8.846 6.613 16.016 14.77 16.016h97.97c8.157 0 14.769-7.17 14.769-16.016V229.357c0-8.845-6.612-16.016-14.769-16.016Zm-133.92 0h-68.218c-8.157 0-14.77 7.171-14.77 16.016v181.449c0 8.846 6.613 16.016 14.77 16.016h68.218c8.157 0 14.769-7.17 14.769-16.016V229.357c0-8.845-6.612-16.016-14.769-16.016Z"/>
  <path fill="#3FBDF1" d="M298.93 535.379h225.324c3.894-.002 7.627-1.679 10.38-4.664 2.754-2.985 4.303-7.032 4.306-11.254V216.155a17.086 17.086 0 0 0-1.116-6.096 16.082 16.082 0 0 0-3.183-5.167 14.673 14.673 0 0 0-4.765-3.452 13.682 13.682 0 0 0-5.622-1.21H371.125l-40.022.259h-.116l-20.237.854h-.065l-5.326.224h-.471l-.393 3.437-.775 6.391a.075.075 0 0 1 .013.042.083.083 0 0 1-.013.042l-6.3 10.122-1.291 2.051-3.557 24.682v.119c-.078-.035-.155-.084-.252-.14a1.534 1.534 0 0 1-.219-.168c-1.197-.977-2.096-2.32-2.582-3.857-1.182-3.248-1.466-7.553-1.479-10.969l-.774 18.753v.07l-1.078 25.053-.265 6.728a364.3 364.3 0 0 0 2.066-4.047l-2.679 18.565-.555 13.377-1.382 33.803-.051 1.26v.483l-.362 8.232v.189s-1.033 24.158-1.033 24.193l-.097 2.24-1.194 9.779-3.486 27.363v100.101a16.92 16.92 0 0 0 2.052 8.103c1.343 2.452 3.27 4.468 5.578 5.834 4.371 2.569 9.205 2.226 14.008 2.051 1.291-.042 2.582-.105 3.873-.182"/>
  <path fill="#24A0ED" d="M290.377 530.158c-.091 0-.188-.091-.297-.126a13.744 13.744 0 0 1-3.447-1.96c-1.86-1.433-3.375-3.329-4.419-5.53a16.513 16.513 0 0 1-1.578-7.112V381.84l-3.486 1.813-.22.119-.471-1.267-2.33-6.3-.646-1.743-5.893-15.953s11.193-49.112 18.597-81.313c2.711-11.823 4.919-21.371 5.849-25.382.284-1.197.451-1.897.484-2.016a.589.589 0 0 0 0-.084 1.63 1.63 0 0 0-.097-.7 5.686 5.686 0 0 0-.329-.749.542.542 0 0 0-.065-.14 33.325 33.325 0 0 0-2.582-4.046l-1.226-16.471.2-.168.929-.805 6.352-5.46 1.478-4.242 2.899-8.247 1.291-3.675h9.418l20.54-.07h1.762l38.97-.252h149.108c1.878 0 3.737.402 5.472 1.181 1.734.78 3.31 1.923 4.637 3.364a15.65 15.65 0 0 1 3.095 5.033 16.662 16.662 0 0 1 1.082 5.935V515.43a16.66 16.66 0 0 1-1.082 5.934 15.66 15.66 0 0 1-3.095 5.033 14.274 14.274 0 0 1-4.637 3.363 13.329 13.329 0 0 1-5.472 1.182H299.201"/>
  <path stroke="#000" stroke-miterlimit="10" stroke-width="4.5" d="m305.295 200.643 5.28-.035h.11l20.269-.119h.142l40.022-.259h153.136c3.895.001 7.629 1.68 10.383 4.666 2.753 2.986 4.301 7.036 4.303 11.259v303.306c-.003 4.222-1.552 8.269-4.306 11.254-2.753 2.985-6.487 4.662-10.38 4.664H291.436c-3.794 0-7.433-1.634-10.115-4.544-2.683-2.909-4.19-6.854-4.19-10.968V486.75"/>
  <path fill="#fff" d="M510.188 442.5H308.051c-8.157 0-14.77 7.171-14.77 16.016v44.528c0 8.846 6.613 16.016 14.77 16.016h202.137c8.157 0 14.769-7.17 14.769-16.016v-44.528c0-8.845-6.612-16.016-14.769-16.016Z"/>
  <path fill="#3FBDF1" d="M443.358 459.555H312.783c-2.763 0-5.003 2.429-5.003 5.425v32.704c0 2.997 2.24 5.426 5.003 5.426h130.575c2.763 0 5.003-2.429 5.003-5.426V464.98c0-2.996-2.24-5.425-5.003-5.425Z"/>
  <path fill="#fff" d="M419.932 477.901c2.296 0 4.157-2.018 4.157-4.508s-1.861-4.508-4.157-4.508c-2.297 0-4.158 2.018-4.158 4.508s1.861 4.508 4.158 4.508Zm-11.607 15.875c0-3.341 1.224-6.547 3.403-8.91 2.18-2.363 5.135-3.69 8.217-3.69 3.081 0 6.036 1.327 8.216 3.69 2.179 2.363 3.403 5.569 3.403 8.91h-23.239Z"/>
  <path fill="#3FBDF1" d="M483.826 459.561c-4.048-.004-8.007 1.293-11.375 3.729-3.367 2.436-5.993 5.901-7.545 9.956a23.937 23.937 0 0 0-1.171 12.823c.788 4.307 2.736 8.262 5.598 11.368 2.861 3.105 6.508 5.22 10.478 6.076 3.97.858 8.086.418 11.826-1.262 3.74-1.679 6.937-4.524 9.185-8.175 2.249-3.651 3.449-7.942 3.447-12.332a23.809 23.809 0 0 0-1.554-8.488 22.372 22.372 0 0 0-4.431-7.196 20.434 20.434 0 0 0-6.632-4.809 19.072 19.072 0 0 0-7.826-1.69Zm0 39.011a2.8 2.8 0 0 1-1.188-.202 2.982 2.982 0 0 1-1.019-.693 3.274 3.274 0 0 1-.686-1.072 3.494 3.494 0 0 1 0-2.556 3.27 3.27 0 0 1 .686-1.071c.293-.303.64-.539 1.019-.693a2.77 2.77 0 0 1 1.188-.202 2.9 2.9 0 0 1 2.028 1.002c.531.604.828 1.407.828 2.243 0 .835-.297 1.638-.828 2.242a2.9 2.9 0 0 1-2.028 1.002Zm3.763-24.955c-.645 4.816-1.168 9.87-2.491 14.532-.297 1.127-2.253 1.127-2.582 0a86.372 86.372 0 0 1-2.144-10.71c-.413-2.625-1.826-6.895-.471-9.443 1.194-2.289 4.564-2.562 6.501-1.4 2.414 1.484 1.446 4.627 1.187 7.021Z"/>
  <path fill="#fff" d="M505.553 367.664c-.991 9.275-4.532 18.012-10.162 25.077-5.629 7.066-13.088 12.132-21.406 14.542-8.319 2.409-17.114 2.051-25.242-1.029s-15.215-8.74-20.34-16.243c-5.124-7.504-8.049-16.505-8.397-25.835-.346-9.329 1.902-18.556 6.453-26.482 4.552-7.927 11.195-14.186 19.069-17.965 7.873-3.78 16.613-4.905 25.083-3.229.373.078.726.238 1.039.47.314.232.58.531.783.878.203.348.337.737.396 1.143.058.407.04.822-.055 1.219l-.846 3.577-7.578 32.089a3.254 3.254 0 0 0 .015 1.557c.131.509.384.972.732 1.341a2.73 2.73 0 0 0 1.251.765 2.57 2.57 0 0 0 1.436-.016l29.416-8.918 4.022-1.218c.358-.11.733-.14 1.102-.089a2.64 2.64 0 0 1 1.047.385c.321.203.602.474.825.798.223.322.384.691.473 1.083a50.29 50.29 0 0 1 .884 16.1Z"/>
  <path fill="#fff" d="M506.567 334.595a3.218 3.218 0 0 1-.113 2.432c-.174.373-.42.704-.719.968-.3.266-.648.459-1.021.569l-2.769.84-23.955 7.26c-.47.141-.965.147-1.437.015a2.739 2.739 0 0 1-1.251-.764c-.347-.37-.6-.833-.731-1.341a3.254 3.254 0 0 1-.015-1.557l6.19-26.125.594-2.506c.094-.398.261-.772.494-1.097.232-.325.523-.593.856-.791a2.567 2.567 0 0 1 2.194-.212c4.873 1.824 9.33 4.759 13.07 8.607 3.74 3.848 6.677 8.52 8.613 13.702Z"/>
  <path fill="#D7E8F0" d="M462.311 255.088c6.517 0 11.8-5.729 11.8-12.796 0-7.067-5.283-12.796-11.8-12.796s-11.8 5.729-11.8 12.796c0 7.067 5.283 12.796 11.8 12.796Zm43.526 15.484h-85.899v2.562h85.899v-2.562Zm0 9.477h-85.899v2.562h85.899v-2.562Zm0 8.641h-85.899v2.562h85.899v-2.562Zm-129.838 35.405H308.71v2.562h67.289v-2.562Zm0 10.339H308.71v2.562h67.289v-2.562Zm0 10.333H308.71v2.562h67.289v-2.562Zm0 10.339H308.71v2.562h67.289v-2.562Zm0 10.339H308.71v2.562h67.289v-2.562Z"/>
  <path fill="#fff" d="M299.479 251.296s20.449 34.923 43.753 45.899c23.303 10.977 30.584 15.828 39.499 11.901 8.914-3.928 26.027-9.43 38.085-48.301 12.059-38.871 17.804-59.333 18.23-68.748.426-9.415-23.549-1.68-23.549-1.68s-12.91 41.266-41.197 59.683l-40.286-46.145-34.535 47.391Zm-23.897 53.669 16.461 4.845s-19.114 28.581-2.118 58.506c16.997 29.925 51.997 90.301 51.997 90.301l66.991 115.501-62.654-9.471-46.78-55.566-23.884-25.824-29.933-101.326 29.92-76.966Z"/>
  <path fill="#2E2E2E" d="M6.814 452.667a6.725 6.725 0 0 0 4.844.791c1.65-.356 3.133-1.327 4.193-2.744l24.362-32.389L59.87 391.57l-16.093-9.8a6.73 6.73 0 0 0-5.483-.727c-1.845.555-3.411 1.882-4.354 3.688L3.948 441.852a8.334 8.334 0 0 0-.897 2.957 8.509 8.509 0 0 0 .231 3.104 8.117 8.117 0 0 0 1.324 2.764 7.44 7.44 0 0 0 2.208 1.99Zm370.824 152.777 20.275 21.63c1.75 1.871 4.108 2.922 6.565 2.926h50.706a7.654 7.654 0 0 0 4.434-1.409c1.32-.927 2.364-2.251 3.002-3.81a9.465 9.465 0 0 0 .594-4.968c-.251-1.684-.948-3.253-2.008-4.513-1.333-1.617-3.174-2.636-5.164-2.856l-28.125-3.129-50.279-3.871ZM192.477 334.902s39.216 11.83 65.359 15.358c26.144 3.528 24.31-8.232 24.31-8.232l3.196-14.854c8.391-14.826 13.265-46.369 13.265-46.369l3.37-24.675 4.918 9.387 15.899 17.367.194.168c-.484-8.295-.116-19.95 1.666-35.826 4.105-36.75 17.7-32.487 17.7-32.487l-1.995-2.373c-9.392-16.948-39.377-34.861-48.956-39.145-9.58-4.284-5.48 1.785-4.26 6.3 1.22 4.515-2.266 17.22-16.229 10.752-13.962-6.468-14.666-20.538-14.666-20.538h-6.487c-39.796 5.187-60.033 28.204-60.033 28.204 42.274 10.815 32.572 49.7 32.572 49.7l-3.834 3.801c-15.008 14.112-16.054 27.72-14.757 33.39 1.298 5.67 10.555 13.301 27.267 17.725 16.713 4.424 19.753 4.431 23.529-3.402s8.179-8.799 14.202-9.976c6.022-1.176 13.4 3.466 11.716 7.12-1.685 3.654-2.905.462 1.291 10.332 4.196 9.87 2.246 14.889-9.037 23.982-11.284 9.093-61.454 3.99-61.454 3.99-23.994-7.196-18.746.301-18.746.301Z"/>
  <path fill="#3FBDF1" d="M284.199 169.968v1.869c11.216 3.04 21.78 8.418 31.101 15.834a110.863 110.863 0 0 1 4.435 3.697c.038-5.146-.368-10.312-1.898-15.184-1.24-4.181-3.575-7.88-6.72-10.647-2.769-2.394-6.042-3.927-9.334-5.313-3.292-1.386-6.526-2.604-9.547-4.473-2.546-1.51-4.77-3.585-6.527-6.09a6.71 6.71 0 0 1-1.113-3.09 6.875 6.875 0 0 1 .468-3.28 3.2 3.2 0 0 1-.872-.189l.007 26.866Z"/>
  <path fill="#3FBDF1" d="M284.199 169.968v1.869c11.216 3.04 21.78 8.418 31.101 15.834a110.863 110.863 0 0 1 4.435 3.697c.038-5.146-.368-10.312-1.898-15.184-1.24-4.181-3.575-7.88-6.72-10.647-2.769-2.394-6.042-3.927-9.334-5.313-3.292-1.386-6.526-2.604-9.547-4.473-2.546-1.51-4.77-3.585-6.527-6.09a6.71 6.71 0 0 1-1.113-3.09 6.875 6.875 0 0 1 .468-3.28 3.2 3.2 0 0 1-.872-.189l.007 26.866Z"/>
  <path fill="#24A0ED" d="M129.229 286.184c4.215 3.271 8.9 5.761 13.866 7.371a58.348 58.348 0 0 0 6.5 1.764c-8.669-22.155-2.181-51.303 25.176-82.384a169.041 169.041 0 0 1 14.93-14.994c8.502-7.497 16.054-13.083 24.963-17.577a104.008 104.008 0 0 1 12.264-5.187 104.014 104.014 0 0 1 22.832-5.439 74.451 74.451 0 0 1 5.268-.504 31.818 31.818 0 0 1 .252-9.87c1.626-8.925 4.46-14.056 9.611-21.091 3.228-4.431 8.269-15.016 1.55-18.67-4.242-2.289-4.629-7-2.634-9.8 1.685-2.436 5.093-3.549 9.295-.7 2.905 2.016 6.352 2.142 9.683 1.155 2.587-1.634 4.83-3.837 6.584-6.468 4.88-7.58 5.055-19.068-2.582-24.633-4.163-3.045-9.47-3.78-14.446-3.192a29.584 29.584 0 0 0-6.552 1.554.064.064 0 0 0-.03-.007.06.06 0 0 0-.029.007c-9.037 5.271-15.46 15.015-18.558 25.998-1.821 6.489-3.873 12.915-6.275 19.215-1.975 5.167-3.35 11.446-7.746 14.974a16.996 16.996 0 0 1-6.139 3.15c-8.307 5.712-19.83 2.415-28.912 1.197-7.262-1.077-14.655-.271-21.574 2.352-7.746 4.249-14.408 11.032-19.811 19.852-8.927 14.595.523 35.637-14.407 47.145-4.519 3.465-9.683 5.565-14.621 8.254-7.049 3.885-12.743 9.408-14.847 17.913-4.157 17.157 3.24 38.262 16.389 48.615Z"/>
  <path stroke="#000" stroke-miterlimit="10" stroke-width="4.5" d="M494.302 629.998H141.049"/>
  <path fill="#3FBDF1" d="M297.154 96.88a51.655 51.655 0 0 1 2.324 6.299c.93 3.5-.077 5.67 1.336 9.009.485 1.155 1.182 3.108 1.937 5.082.213-.462.407-.84.523-1.134 5.538-13.377-1.743-19.824-5.248-22.029a19.85 19.85 0 0 1-.872 2.772Z"/>
  <path fill="#3FBDF1" d="M297.154 96.88a51.655 51.655 0 0 1 2.324 6.299c.93 3.5-.077 5.67 1.336 9.009.485 1.155 1.182 3.108 1.937 5.082.213-.462.407-.84.523-1.134 5.538-13.377-1.743-19.824-5.248-22.029a19.85 19.85 0 0 1-.872 2.772Z"/>
  <path stroke="#000" stroke-miterlimit="10" stroke-width="4.5" d="M174.429 322.556c-3.383 28.924-.646 79.101 53.978 117.489 9.831 6.909 18.681 16.667 27.35 25.102a942.564 942.564 0 0 1 67.386 73.445c13.007 15.638 26.285 32.075 39.473 47.909a1602.509 1602.509 0 0 0 20.502 24.052c5.087 5.817 13.156 19.439 21.334 19.439h50.26c4.519 0 8.624-4.011 8.56-8.932-.037-2.126-.779-4.167-2.092-5.747-1.333-1.617-3.174-2.635-5.164-2.856l-28.125-3.129-135.888-234.349c-7.01-12.096-13.226-32.004-7.804-45.045 20.656-49.602 18.881-97.679 18.881-97.679"/>
  <path stroke="#000" stroke-miterlimit="10" stroke-width="4.5" d="M244.784 455.123c-5.925 22.575-15.492 45.5-23.393 59.934-2.863 5.27-6.637 9.891-11.116 13.608-16.19 13.448-39.073 12.013-54.598-2.317l-77.21-71.267-38.247-36.758-24.362 32.39c-1.152 1.519-2.787 2.515-4.583 2.791-1.796.276-3.623-.188-5.118-1.301-1.496-1.113-2.553-2.795-2.962-4.71a8.447 8.447 0 0 1 .753-5.643l29.998-57.106c.943-1.807 2.509-3.133 4.354-3.688 1.844-.556 3.817-.294 5.483.727l16.093 9.8 92.206 56.001a10.456 10.456 0 0 0 5.006 1.524c1.757.072 3.504-.31 5.097-1.114a11.3 11.3 0 0 0 4.071-3.509 12.535 12.535 0 0 0 2.151-5.134l10.922-62.104m104.87-238.304v32.669c2.924 4.62 4.396 11.2 1.607 16.1-3.737 6.573-11.987 5.481-17.215 1.806a40.264 40.264 0 0 1-4.396-3.57c-4.655-4.385-7.667-10.466-8.47-17.094a31.848 31.848 0 0 1 .252-9.87c1.64-8.918 4.467-14.042 9.625-21.098 3.227-4.41 8.262-15.009 1.536-18.663-7.882-4.263-2.421-16.737 6.662-10.5 7.049 4.851 17.177-1.197 21.36-7.7 4.88-7.58 5.054-19.068-2.582-24.633-4.164-3.045-9.47-3.78-14.447-3.192-15.163 1.806-25.956 14.658-30.274 29.946-1.821 6.489-3.874 12.915-6.275 19.215-1.975 5.166-3.35 11.446-7.746 14.974-8.392 6.783-20.489 3.234-29.959 1.974-19.714-2.625-35.613 6.846-46.477 24.577-8.927 14.595.523 35.637-14.408 47.145-4.518 3.465-9.683 5.565-14.621 8.253-7.049 3.886-12.742 9.409-14.814 17.914-4.183 17.136 3.227 38.241 16.364 48.594 6.022 4.746 13.071 7.581 20.391 9.135"/>
  <path stroke="#000" stroke-miterlimit="10" stroke-width="4.5" d="M323.117 195.357c.039-.392.052-.77.071-1.141.329-6.769.29-13.783-1.743-20.3-1.248-4.177-3.584-7.873-6.726-10.64-2.776-2.387-6.049-3.934-9.328-5.321-3.279-1.386-6.533-2.59-9.547-4.466-2.552-1.503-4.778-3.582-6.526-6.097a6.689 6.689 0 0 1-1.109-3.08 6.878 6.878 0 0 1 .463-3.269"/>
  <path stroke="#000" stroke-miterlimit="10" stroke-width="4.5" d="M278.086 131.999c2.285 3.542 5.384 7.364 9.289 8.743 5.054 1.785 8.456-2.87 10.27-7.399 1.085-2.696 1.833-5.566 2.711-8.352.284-.917.459-1.358 1.427-1.4.968-.042 1.988.168 2.982.168a.38.38 0 0 0 .2-.064.432.432 0 0 0 .191-.385.466.466 0 0 0-.062-.216c-1.336-2.205-3.33-8.218-4.338-10.626-1.4-3.339-.387-5.502-1.329-9.009a53.934 53.934 0 0 0-2.311-6.3"/>
  <path stroke="#000" stroke-miterlimit="10" stroke-width="4.5" d="M298.607 90.684s13.782 5.733 6.662 22.96c-.439 1.043-1.517 3.22-2.027 4.2"/>
  <path fill="#3FBDF1" d="M447.264 41.566s.077.042.233.105l-.233-.105Z"/>
  <path stroke="#000" stroke-miterlimit="10" stroke-width="4.5" d="M297.845 132.846a4.3 4.3 0 0 1-3.152-.781c-.928-.668-1.599-1.679-1.889-2.846m7.372-19.444c-2.853-2.52-5.984.7-7.895 3.038m-36.536 56.047c-9.57.658-19.021 2.65-28.119 5.929-14.847 5.278-25.072 12.089-37.201 22.765a169.842 169.842 0 0 0-14.931 15.015c-27.383 31.08-33.857 60.242-25.175 82.391 7.055 18.046 23.322 29.239 39.99 34.944 10.902 3.724 22.263 5.327 33.663 5.684 13.588.42 27.293-.14 40.668-2.94 5.635-1.176 12.129-2.142 15.492-7.819 3.363-5.677 3.647-13.335 1.149-19.418-2.343-5.663-8.669-11.753-14.388-7.308a5.481 5.481 0 0 0-1.526 1.889 5.98 5.98 0 0 0-.611 2.423"/>
  <path stroke="#000" stroke-miterlimit="10" stroke-width="4.5" d="M245.41 206.311c.71 23.212-17.429 36.155-17.429 36.155-6.016 5.285-11.865 10.962-16.783 17.465-3.144 4.151-6.062 8.799-7.508 14a18.497 18.497 0 0 0 .052 10.913c1.232 3.269 3.269 6.107 5.887 8.205 4.893 4.151 10.845 6.3 16.745 8.162a137.48 137.48 0 0 0 19.817 4.578c3.873.602 5.506-.7 7.275-4.333 1.601-3.29 2.911-7.098 5.874-9.247 4.106-2.99 9.618-3.683 14.37-2.45 7.326 1.89 9.198 8.19 3.227 9.464"/>
  <path fill="#fff" d="m240.936 363.792-111.319-29.169-26.492 118.889 108.234 29.176 3.473-1.729 26.104-117.167Z"/>
  <path fill="#D7E8F0" d="M189.573 347.077c5.281-40.082 16.726-49.994 24.175-51.975l-.491-.294c-22.489-9.492-38.085 37.471-41.397 48.454l17.713 3.815Z"/>
  <path fill="#D7E8F0" d="M189.263 350.254c5.28-40.083 17.035-53.201 24.484-55.154l-.49-.294c-22.49-9.492-38.731 39.733-42.056 50.709l18.062 4.739Z"/>
  <path stroke="#000" stroke-miterlimit="10" stroke-width="4.5" d="M213.257 294.806c-25.434-10.724-42.056 50.709-42.056 50.709l18.075 4.739c10.502-61.601 33.037-50.401 33.037-50.401-.794-.259-9.056-5.047-9.056-5.047Z"/>
  <path fill="#3FBDF1" d="M128.377 340.289 103.129 453.55l87.823 23.023L216.2 363.312l-87.823-23.023Z"/>
  <path fill="#fff" d="m129.717 334.294-26.586 119.261 92.472 24.242 26.586-119.262-92.472-24.241Z"/>
  <path fill="#24A0ED" d="m130.153 343.364-22.898 102.715c-.648 2.912 1.002 5.843 3.688 6.547l78.098 20.474c2.685.704 5.389-1.087 6.038-3.999l22.897-102.714c.65-2.913-1.001-5.844-3.687-6.548l-78.098-20.473c-2.685-.704-5.389 1.086-6.038 3.998Z"/>
  <path stroke="#000" stroke-miterlimit="10" stroke-width="4.5" d="m129.635 334.665-26.503 118.888 92.473 24.242 26.502-118.888-92.472-24.242Z"/>
  <path fill="#fff" d="m222.496 359.001-26.503 118.888 18.46 4.839 26.502-118.888-18.459-4.839Z"/>
  <path stroke="#000" stroke-miterlimit="10" stroke-width="4.5" d="m222.496 359.001-26.503 118.888 18.46 4.839 26.502-118.888-18.459-4.839Z"/>
  <path stroke="#000" stroke-miterlimit="10" stroke-width="4.5" d="m214.444 482.69-5.945-16.584-12.517 11.747m35.731-116.474L208.5 466.107m226.847-297.588a26.18 26.18 0 0 0-1.026.21c-3.492.66-6.802 2.168-9.683 4.41-3.156 2.646-6.022 7.245-7.417 11.2a262.874 262.874 0 0 1-6.952 17.724 171.499 171.499 0 0 1-13.556 25.62c-5.403 8.232-11.89 16.576-20.062 21.7a19.112 19.112 0 0 1-3.228 1.701c-1.375.63-20.721-23.506-22.851-26.194-8.541-10.773-17.371-21.441-27.383-30.66a127.382 127.382 0 0 0-7.863-6.741c-9.327-7.423-19.897-12.808-31.12-15.855"/>
  <path stroke="#000" stroke-miterlimit="10" stroke-width="4.5" d="M470.153 167.635a.208.208 0 0 0 .116 0c8.947 1.134 5.442 11.592-.852 11.256-6.952-.378-13.885 0-20.818.126a12.402 12.402 0 0 0-5.577 1.113c-3.486 1.806-3.815 5.838-4.338 9.492a289.944 289.944 0 0 1-2.427 14.323c-1.82 9.408-4.067 18.69-6.642 27.888-1.666 5.964-3.505 11.9-5.442 17.773-5.655 17.304-12.781 35.658-24.769 49.001-6.623 7.392-15.298 12.852-25.078 12.054-13.769-1.113-27.015-8.61-38.692-17.136a.9.9 0 0 1-.136-.126 132.292 132.292 0 0 1-12.51-10.375s-16.093-15.54-21.011-26.922"/>
  <path stroke="#000" stroke-miterlimit="10" stroke-width="4.5" d="M495.593 158.23v.98c0 6.762-5.022 7.924-9.36 8.036l-83.962 2.1c-3.68.105-6.772-3.388-6.849-7.749v-.182c0-4.277 2.892-7.833 6.526-7.931 0 0 46.968-1.435 83.343-2.52.69 2.387 2.382 4.235 4.48 5.677a9.708 9.708 0 0 0 5.822 1.589Zm44.606-96.344a7.575 7.575 0 0 1-.71 3.206l-37.524 83.476a7.39 7.39 0 0 1-1.841 2.49 6.7 6.7 0 0 1-2.633 1.43 6.302 6.302 0 0 1-4.628-.518 7.085 7.085 0 0 1-2.794-2.742 7.908 7.908 0 0 1-1.034-3.929 8.018 8.018 0 0 1 .684-3.206l37.544-83.483c.682-1.491 1.808-2.688 3.197-3.398a6.331 6.331 0 0 1 4.451-.511c1.495.379 2.828 1.294 3.782 2.596.956 1.303 1.477 2.917 1.48 4.582l.026.007Z"/>
  <path fill="#3FBDF1" d="M438.09 44.717c11.387 0 20.618-10.01 20.618-22.359C458.708 10.01 449.477 0 438.09 0c-11.386 0-20.617 10.01-20.617 22.358s9.231 22.359 20.617 22.359Z"/>
  <path fill="#fff" d="M431.538 30.05a7 7 0 0 1-1.897-1.154c-1.012-.828-1.708-2.03-1.956-3.377a6.01 6.01 0 0 1 .613-3.931 5.586 5.586 0 0 1 1.687-1.909 5.064 5.064 0 0 1 2.296-.891 6.24 6.24 0 0 1-.269-3.66c.28-1.22.917-2.306 1.817-3.097a5.098 5.098 0 0 1 3.172-1.287 5.038 5.038 0 0 1 3.245 1.044c1.995 1.505 3.376 4.158 4.222 6.58a22.15 22.15 0 0 1 .956 3.927c.096.7.755 4.55.238 4.942-3.408 2.562-9.753 4.62-14.124 2.814Z"/>
  <g opacity=".72">
    <path fill="#3FBDF1" d="M420.694 91.356c6.267 0 11.348-5.509 11.348-12.306 0-6.796-5.081-12.306-11.348-12.306s-11.348 5.51-11.348 12.306c0 6.797 5.081 12.306 11.348 12.306Z" opacity=".72"/>
    <path fill="#fff" d="M422.941 84.272a3.985 3.985 0 0 1-.943.812 2.67 2.67 0 0 1-1.993.365 2.84 2.84 0 0 1-1.719-1.156 3.323 3.323 0 0 1-.553-1.336 3.458 3.458 0 0 1 .056-1.464 2.79 2.79 0 0 1-1.765-.624 3.197 3.197 0 0 1-1.067-1.649 3.437 3.437 0 0 1 .059-2.013 3.144 3.144 0 0 1 1.16-1.573 6.708 6.708 0 0 1 3.97-.952 9.25 9.25 0 0 1 2.046.294c.342.084 2.291.532 2.369.896.497 2.429.142 6.37-1.62 8.4Z" opacity=".72"/>
  </g>
  <path fill="#3FBDF1" d="m484.58 52.193-11.136 6.438c-4.04 2.334-5.568 7.779-3.416 12.159l5.937 12.076c2.153 4.381 7.173 6.04 11.213 3.704l11.136-6.437c4.04-2.335 5.569-7.78 3.416-12.16l-5.936-12.076c-2.154-4.38-7.174-6.039-11.214-3.704Z"/>
  <path fill="#fff" d="m489.042 83.139 8.062-4.662c1.681-.979 2.937-2.639 3.493-4.618a8.431 8.431 0 0 0-.523-5.945l-5.165-10.5c-.901-1.825-2.431-3.188-4.257-3.791a6.717 6.717 0 0 0-5.484.57l-.542.315c-2.014 3.031-4.693 8.218-.645 9.85 5.809 2.358 4.112 5.894 1.936 10.423-1.846 3.8-2.317 8.246 3.125 8.358Zm-12.556-12.712c1.683 0 3.047-1.48 3.047-3.305 0-1.824-1.364-3.303-3.047-3.303s-3.047 1.479-3.047 3.303c0 1.825 1.364 3.305 3.047 3.305Z"/>
  <path fill="#3FBDF1" d="M438.956 125.572a12.281 12.281 0 0 0 3.57 1.232c2.274.378 4.599.11 6.749-.778 2.15-.888 4.05-2.366 5.516-4.29 1.129-1.526 1.975-3.437 3.163-4.977a7.098 7.098 0 0 1 3.137-2.464 2.6 2.6 0 0 0 1.156-.609c.813-.91-.569-1.68-.846-2.415a5.588 5.588 0 0 1 0-3.682 15.49 15.49 0 0 0 .084-9.675c-1.005-3.14-2.983-5.803-5.596-7.537-2.614-1.734-5.701-2.431-8.736-1.974-3.035.459-5.829 2.044-7.906 4.486-2.053 2.401-3.286 5.467-4.564 8.4-1.136 2.611-2.343 5.208-2.969 8.015-1.453 6.65 1.826 13.405 7.242 16.268Z"/>
  <path fill="#fff" d="M450.485 101.948c1.587 0 2.872-1.395 2.872-3.115 0-1.72-1.285-3.115-2.872-3.115s-2.873 1.394-2.873 3.115c0 1.72 1.286 3.115 2.873 3.115Zm-3.764 8.597c1.587 0 2.873-1.395 2.873-3.115 0-1.72-1.286-3.115-2.873-3.115-1.587 0-2.872 1.395-2.872 3.115 0 1.72 1.285 3.115 2.872 3.115Zm-3.531 8.064c1.587 0 2.873-1.395 2.873-3.115 0-1.721-1.286-3.115-2.873-3.115-1.587 0-2.873 1.394-2.873 3.115 0 1.72 1.286 3.115 2.873 3.115Z"/>
  <g opacity=".54">
    <path fill="#3FBDF1" d="M374.236 138.264a16.99 16.99 0 0 0 2.582-.581l9.722-2.968c2.976-.91 6.106-1.918 8.217-4.376 3.912-4.557 2.647-11.795 1.13-17.801-1.235-4.914-2.472-9.828-3.712-14.742-.852-3.388-1.73-6.832-3.428-9.8-1.697-2.968-4.383-5.516-7.584-6.062-2.356-.399-4.745.287-7.049.966l-9.328 2.8c-3.06.903-6.287 1.918-8.431 4.46-3.808 4.514-2.582 11.598-1.123 17.499l3.725 15.085c2.285 9.066 6.565 16.71 15.279 15.52Z" opacity=".54"/>
    <path fill="#fff" d="M373.59 117.691a4.495 4.495 0 0 0 2.07 1.259 4.235 4.235 0 0 0 2.372-.031 4.524 4.524 0 0 0 2.04-1.315 5.082 5.082 0 0 0 1.161-2.244l1.084-4.606 1.078-4.613a5.358 5.358 0 0 0-.031-2.573 5.059 5.059 0 0 0-1.213-2.21 4.5 4.5 0 0 0-2.07-1.257 4.238 4.238 0 0 0-2.373.034l-4.215 1.288-4.221 1.288a4.52 4.52 0 0 0-2.034 1.32 5.094 5.094 0 0 0-1.154 2.246 5.388 5.388 0 0 0 .035 2.571c.221.838.64 1.599 1.216 2.207l3.144 3.318 3.111 3.318Z" opacity=".54"/>
  </g>
</svg>
